<svg preserveAspectRatio="xMidYMid meet" xmlns="http://www.w3.org/2000/svg" viewBox="290.816 215.04 403.456 430.08" style="max-height: 500px" width="403.456" height="430.08"><svg preserveAspectRatio="none" xmlns="http://www.w3.org/2000/svg" height="494" width="505" y="267" x="260"><svg preserveAspectRatio="none" viewBox="-27.93 -18.95 2075.93 2030.71" height="494" width="505" style="display: block;" xmlns="http://www.w3.org/2000/svg" version="1.1"><g id="svg-group-a7dd18a1-ce91-4eaf-8b98-9e884c6f14fc">
<defs>
	<linearGradient y2="1619.42" x2="1933.04" y1="2034.09" x1="1836.78" gradientUnits="userSpaceOnUse" id="Gradient1">
		<stop stop-color="rgba(237, 35, 204, 0.7)" stop-opacity="1" offset="0" class="stop0"/>
		<stop stop-color="rgba(160, 68, 176, 1)" stop-opacity="1" offset="1" class="stop1"/>
	</linearGradient>
	<linearGradient y2="1608.39" x2="1027.08" y1="2023.17" x1="962.764" gradientUnits="userSpaceOnUse" id="Gradient2">
		<stop stop-color="rgba(224, 199, 227, 1)" stop-opacity="1" offset="0" class="stop0"/>
		<stop stop-color="rgba(160, 68, 176, 1)" stop-opacity="1" offset="1" class="stop1"/>
	</linearGradient>
	<linearGradient y2="1593.63" x2="615.208" y1="2014.39" x1="526.27" gradientUnits="userSpaceOnUse" id="Gradient3">
		<stop stop-color="rgba(132, 36, 172, 1)" stop-opacity="1" offset="0" class="stop0"/>
		<stop stop-color="rgba(210, 54, 173, 1)" stop-opacity="1" offset="1" class="stop1"/>
	</linearGradient>
	<linearGradient y2="1582.66" x2="224.726" y1="2018.35" x1="131.709" gradientUnits="userSpaceOnUse" id="Gradient4">
		<stop stop-color="rgba(237, 35, 204, 0.7)" stop-opacity="1" offset="0" class="stop0"/>
		<stop stop-color="rgba(219, 46, 213, 1)" stop-opacity="1" offset="1" class="stop1"/>
	</linearGradient>
	<linearGradient y2="454.369" x2="1530.4" y1="479.309" x1="1512.55" gradientUnits="userSpaceOnUse" id="Gradient5">
		<stop stop-color="rgba(84, 26, 115, 1)" stop-opacity="1" offset="0" class="stop0"/>
		<stop stop-color="rgba(224, 23, 239, 1)" stop-opacity="1" offset="1" class="stop1"/>
	</linearGradient>
	<linearGradient y2="384.167" x2="1491.71" y1="329.742" x1="1371.84" gradientUnits="userSpaceOnUse" id="Gradient6">
		<stop stop-color="rgba(81, 7, 60, 1)" stop-opacity="1" offset="0" class="stop0"/>
		<stop stop-color="rgba(127, 85, 162, 1)" stop-opacity="1" offset="1" class="stop1"/>
	</linearGradient>
	<linearGradient y2="91.8215" x2="749.572" y1="1201.97" x1="1134.13" gradientUnits="userSpaceOnUse" id="Gradient7">
		<stop stop-color="rgba(168, 97, 175, 1)" stop-opacity="1" offset="0" class="stop0"/>
		<stop stop-color="rgba(220, 115, 222, 1)" stop-opacity="1" offset="1" class="stop1"/>
	</linearGradient>
	<linearGradient y2="1029.84" x2="1698.04" y1="1027.54" x1="1691.12" gradientUnits="userSpaceOnUse" id="Gradient8">
		<stop stop-color="rgba(198, 94, 200, 1)" stop-opacity="1" offset="0" class="stop0"/>
		<stop stop-color="rgba(84, 26, 115, 1)" stop-opacity="1" offset="1" class="stop1"/>
	</linearGradient>
	<linearGradient y2="562.806" x2="1049.33" y1="594.232" x1="1066.81" gradientUnits="userSpaceOnUse" id="Gradient9">
		<stop stop-color="rgba(127, 85, 162, 1)" stop-opacity="1" offset="0" class="stop0"/>
		<stop stop-color="rgba(170, 86, 169, 1)" stop-opacity="1" offset="1" class="stop1"/>
	</linearGradient>
	<linearGradient y2="598.077" x2="1178.29" y1="573.306" x1="1243.09" gradientUnits="userSpaceOnUse" id="Gradient10">
		<stop stop-color="rgba(41, 35, 50, 1)" stop-opacity="1" offset="0" class="stop0"/>
		<stop stop-color="rgba(58, 37, 61, 1)" stop-opacity="1" offset="1" class="stop1"/>
	</linearGradient>
	<linearGradient y2="1208.66" x2="1211.33" y1="1191.95" x1="1255.32" gradientUnits="userSpaceOnUse" id="Gradient11">
		<stop stop-color="rgba(97, 51, 99, 1)" stop-opacity="1" offset="0" class="stop0"/>
		<stop stop-color="rgba(2, 0, 2, 1)" stop-opacity="1" offset="1" class="stop1"/>
	</linearGradient>
	<linearGradient y2="1038.98" x2="1124" y1="1023.13" x1="1168.82" gradientUnits="userSpaceOnUse" id="Gradient12">
		<stop stop-color="rgba(97, 51, 99, 1)" stop-opacity="1" offset="0" class="stop0"/>
		<stop stop-color="rgba(2, 0, 2, 1)" stop-opacity="1" offset="1" class="stop1"/>
	</linearGradient>
	<linearGradient y2="1147.1" x2="1191.36" y1="1136.08" x1="1253.26" gradientUnits="userSpaceOnUse" id="Gradient13">
		<stop stop-color="rgba(71, 39, 74, 1)" stop-opacity="1" offset="0" class="stop0"/>
		<stop stop-color="rgba(97, 51, 99, 1)" stop-opacity="1" offset="1" class="stop1"/>
	</linearGradient>
	<linearGradient y2="601.198" x2="1022.58" y1="645.482" x1="1097.66" gradientUnits="userSpaceOnUse" id="Gradient14">
		<stop stop-color="rgba(2, 0, 2, 1)" stop-opacity="1" offset="0" class="stop0"/>
		<stop stop-color="rgba(127, 85, 162, 1)" stop-opacity="1" offset="1" class="stop1"/>
	</linearGradient>
	<linearGradient y2="600.62" x2="1095.81" y1="649.341" x1="1181.64" gradientUnits="userSpaceOnUse" id="Gradient15">
		<stop stop-color="rgba(85, 44, 85, 1)" stop-opacity="1" offset="0" class="stop0"/>
		<stop stop-color="rgba(81, 7, 60, 1)" stop-opacity="1" offset="1" class="stop1"/>
	</linearGradient>
	<linearGradient y2="603.318" x2="946.24" y1="640.313" x1="1018.93" gradientUnits="userSpaceOnUse" id="Gradient16">
		<stop stop-color="rgba(84, 26, 115, 1)" stop-opacity="1" offset="0" class="stop0"/>
		<stop stop-color="rgba(224, 23, 239, 1)" stop-opacity="1" offset="1" class="stop1"/>
	</linearGradient>
	<linearGradient y2="976.426" x2="1102.76" y1="948.152" x1="1173.84" gradientUnits="userSpaceOnUse" id="Gradient17">
		<stop stop-color="rgba(85, 44, 85, 1)" stop-opacity="1" offset="0" class="stop0"/>
		<stop stop-color="rgba(2, 0, 2, 1)" stop-opacity="1" offset="1" class="stop1"/>
	</linearGradient>
	<linearGradient y2="606.181" x2="1174.44" y1="653.618" x1="1270.17" gradientUnits="userSpaceOnUse" id="Gradient18">
		<stop stop-color="rgba(41, 35, 50, 1)" stop-opacity="1" offset="0" class="stop0"/>
		<stop stop-color="rgba(85, 44, 85, 1)" stop-opacity="1" offset="1" class="stop1"/>
	</linearGradient>
	<linearGradient y2="1079.63" x2="1180.61" y1="1058.45" x1="1255.12" gradientUnits="userSpaceOnUse" id="Gradient19">
		<stop stop-color="rgba(58, 37, 61, 1)" stop-opacity="1" offset="0" class="stop0"/>
		<stop stop-color="rgba(4, 1, 4, 1)" stop-opacity="1" offset="1" class="stop1"/>
	</linearGradient>
	<linearGradient y2="680.807" x2="933.906" y1="710.298" x1="1020.4" gradientUnits="userSpaceOnUse" id="Gradient20">
		<stop stop-color="rgba(127, 85, 162, 1)" stop-opacity="1" offset="0" class="stop0"/>
		<stop stop-color="rgba(186, 97, 185, 1)" stop-opacity="1" offset="1" class="stop1"/>
	</linearGradient>
	<linearGradient y2="693.616" x2="1102.33" y1="707.131" x1="1191.01" gradientUnits="userSpaceOnUse" id="Gradient21">
		<stop stop-color="rgba(2, 0, 2, 1)" stop-opacity="1" offset="0" class="stop0"/>
		<stop stop-color="rgba(97, 51, 99, 1)" stop-opacity="1" offset="1" class="stop1"/>
	</linearGradient>
	<linearGradient y2="890.062" x2="1098.88" y1="877.26" x1="1184.66" gradientUnits="userSpaceOnUse" id="Gradient22">
		<stop stop-color="rgba(71, 39, 74, 1)" stop-opacity="1" offset="0" class="stop0"/>
		<stop stop-color="rgba(97, 51, 99, 1)" stop-opacity="1" offset="1" class="stop1"/>
	</linearGradient>
	<linearGradient y2="685.937" x2="1017.32" y1="709.63" x1="1105.79" gradientUnits="userSpaceOnUse" id="Gradient23">
		<stop stop-color="rgba(97, 51, 99, 1)" stop-opacity="1" offset="0" class="stop0"/>
		<stop stop-color="rgba(2, 0, 2, 1)" stop-opacity="1" offset="1" class="stop1"/>
	</linearGradient>
	<linearGradient y2="1007.25" x2="1176.94" y1="972.987" x1="1265.63" gradientUnits="userSpaceOnUse" id="Gradient24">
		<stop stop-color="rgba(41, 35, 50, 1)" stop-opacity="1" offset="0" class="stop0"/>
		<stop stop-color="rgba(71, 39, 74, 1)" stop-opacity="1" offset="1" class="stop1"/>
	</linearGradient>
	<linearGradient y2="792.375" x2="1106.25" y1="790.624" x1="1186.84" gradientUnits="userSpaceOnUse" id="Gradient25">
		<stop stop-color="rgba(2, 0, 2, 1)" stop-opacity="1" offset="0" class="stop0"/>
		<stop stop-color="rgba(97, 51, 99, 1)" stop-opacity="1" offset="1" class="stop1"/>
	</linearGradient>
	<linearGradient y2="887.817" x2="1022.41" y1="852.209" x1="1101.4" gradientUnits="userSpaceOnUse" id="Gradient26">
		<stop stop-color="rgba(81, 7, 60, 1)" stop-opacity="1" offset="0" class="stop0"/>
		<stop stop-color="rgba(127, 85, 162, 1)" stop-opacity="1" offset="1" class="stop1"/>
	</linearGradient>
	<linearGradient y2="783.6" x2="939.396" y1="782.384" x1="1014.62" gradientUnits="userSpaceOnUse" id="Gradient27">
		<stop stop-color="rgba(2, 0, 2, 1)" stop-opacity="1" offset="0" class="stop0"/>
		<stop stop-color="rgba(170, 86, 169, 1)" stop-opacity="1" offset="1" class="stop1"/>
	</linearGradient>
	<linearGradient y2="789.273" x2="1022.04" y1="782.466" x1="1102.02" gradientUnits="userSpaceOnUse" id="Gradient28">
		<stop stop-color="rgba(97, 51, 99, 1)" stop-opacity="1" offset="0" class="stop0"/>
		<stop stop-color="rgba(2, 0, 2, 1)" stop-opacity="1" offset="1" class="stop1"/>
	</linearGradient>
	<linearGradient y2="591.234" x2="765.403" y1="1115.8" x1="1678.92" gradientUnits="userSpaceOnUse" id="Gradient29">
		<stop stop-color="rgba(201, 95, 203, 1)" stop-opacity="1" offset="0" class="stop0"/>
		<stop stop-color="rgba(212, 141, 215, 1)" stop-opacity="1" offset="1" class="stop1"/>
	</linearGradient>
</defs>
<path d="M 801.556 566.929 C 812.323 565.366 823.994 565.973 834.969 565.484 C 916.407 561.85 998.331 564.764 1079.87 563.909 C 1090.22 563.8 1101.01 563.771 1111.31 564.069 C 1254.95 567.868 1398.12 582.243 1539.65 607.078 C 1580.67 614.675 1644.06 622.976 1677.96 649.628 C 1725.92 687.328 1722.46 779.439 1725.11 834.962 C 1725.54 843.836 1723.45 853.923 1723.74 862.935 C 1723.09 877.286 1724.05 894.682 1723.01 908.633 C 1716.55 995.256 1700.2 1102.87 1646.82 1173.5 C 1591.45 1245.83 1509.48 1293.06 1419.13 1304.68 C 1356.5 1313.12 1288.15 1299.35 1237.79 1260.97 C 1158.72 1200.73 1132.64 1122.55 1104.2 1032.23 C 1099.8 1018.24 1089.58 986.146 1080.49 976.356 C 1063.04 957.579 1036 949.33 1011.05 950.633 C 999.691 960.88 991.591 973.703 982.117 985.931 C 965.475 1007.41 934.185 1030.3 906.313 1033.06 C 892.626 1037.04 830.823 1042.5 819.207 1038.5 C 805.912 1037.25 790.456 1038.15 776.926 1037.61 C 678.269 1033.64 633.393 980.488 626.504 884.862 C 626.068 880.799 625.719 876.727 625.458 872.649 C 623.634 836.337 622.896 799.978 623.248 763.621 C 623.3 739.329 623.39 715.012 625.815 690.97 C 630.144 648.042 653.306 606.381 692.569 586.52 C 727.016 569.096 764.228 568.922 801.556 566.929 z M 1359.51 965.848 C 1360.59 959.538 1361.2 952.865 1361.58 946.474 C 1363.17 920.038 1365.7 893.142 1366.19 866.69 C 1338.01 865.248 1309.24 860.753 1281.25 858.792 C 1279.09 890.377 1274.87 921.833 1272.58 953.257 C 1292.3 956.341 1312.04 959.317 1331.79 962.185 C 1335.93 962.766 1356.74 965.128 1359.51 965.848 z M 1369.02 967.684 C 1388.89 968.321 1408.76 969.142 1428.61 970.146 C 1433.89 970.389 1448.81 970.624 1453.34 971.397 C 1456.98 966.616 1456.96 882.475 1456.95 871.871 C 1448.1 871.759 1436.24 871.19 1427.65 870.122 C 1416.2 870.877 1387.88 868.423 1375.29 867.695 C 1373.32 899.78 1369.81 936.085 1369.02 967.684 z M 1263.82 1043.12 C 1284.89 1049.04 1308.38 1052.07 1329.99 1056.15 C 1336.36 1057.35 1346.95 1058.43 1352.8 1059.87 C 1356.43 1063.03 1356.72 1062.24 1360.97 1059.95 C 1379.5 1062.6 1403.04 1061.42 1421.94 1062.39 C 1427.16 1062.66 1438.6 1062.29 1443 1063.07 C 1448.79 1061.19 1447.52 1061.05 1448.06 1055.06 C 1449.73 1030.13 1453.38 1004 1452.78 979.23 C 1436.47 978.817 1420.16 978.186 1403.87 977.338 C 1393.49 976.761 1377.43 975.345 1367.5 975.679 C 1364.95 974.15 1362.94 973.907 1360.01 973.115 C 1331.26 971.124 1298.29 962.454 1271.12 960.473 C 1268.8 984.224 1264.61 1020.03 1263.82 1043.12 z M 1367.81 764.414 C 1342.2 763.157 1310.76 759.131 1286.12 759.087 C 1283.71 789.187 1285.02 818.677 1282.15 850.442 C 1304.07 854.397 1342.91 856.803 1365.9 858.949 C 1367.55 857.52 1367.35 858.294 1367.43 856.632 C 1368.11 844.014 1367.81 831.171 1368.05 818.524 C 1368.4 800.5 1368.86 782.431 1367.81 764.414 z M 1190.94 839.569 C 1218.82 843.597 1246.74 846.553 1274.6 850.408 C 1276.8 819.67 1278.11 788.876 1278.55 758.062 C 1254.93 756.032 1217.5 751.437 1195.23 750.935 C 1194.73 782.719 1192.31 808.887 1190.94 839.569 z M 1375.63 859.561 C 1400.08 861.239 1419.73 862.635 1444.31 863.283 C 1447.56 863.003 1453.59 863.217 1457.06 863.229 C 1456.94 830.79 1456.51 802.894 1454.81 770.523 L 1443.49 769.089 C 1430.89 769.838 1390.31 766.65 1377.26 765.081 C 1377.26 794.055 1377.58 830.893 1375.63 859.561 z M 1463.24 971.099 C 1482.93 969.672 1509.84 968.473 1529.34 968.78 C 1531.24 968.409 1533.14 968.075 1535.05 967.779 C 1537.08 962.824 1538.13 880.857 1537.69 872.037 C 1526.09 872.939 1476.5 873.063 1466.83 871.533 C 1464.44 875.281 1465.31 901.594 1465.19 907.933 C 1464.8 928.908 1463.21 950.169 1463.24 971.099 z M 1291.06 1090.9 C 1299.72 1097.43 1312.7 1108.57 1322.54 1114.13 C 1324.74 1115.37 1330.6 1112.18 1335.73 1114.18 C 1344.03 1122.11 1333.56 1130 1340.39 1137.57 L 1343.92 1139.03 C 1346.57 1123.79 1346.68 1106.83 1347.24 1091.48 C 1347.52 1084.06 1348.87 1076.22 1349.15 1068.56 C 1329.82 1067.22 1298.91 1058.06 1281.22 1058.21 C 1283.02 1066.75 1288.26 1064.45 1296.41 1064.29 C 1294.17 1073.51 1293.08 1081.87 1291.06 1090.9 z M 1195.16 744.426 C 1214.64 745.568 1260.13 747.948 1279.03 751.203 C 1277.51 725.369 1275.86 694.068 1271.67 668.902 C 1244.61 668.25 1217.18 665.053 1190.16 664.893 C 1193.51 691.673 1194.23 717.512 1195.16 744.426 z M 1367.81 756.728 C 1367.73 728.893 1362.26 701.588 1359.42 674.371 C 1334.86 673.502 1304.8 671.511 1280.03 669.736 C 1282.17 692.672 1286.28 727.834 1286.42 750.601 L 1335.09 753.924 C 1343.45 754.482 1359.94 755.269 1367.81 756.728 z M 1529.29 865.087 C 1532.33 864.945 1534.19 865.135 1536.9 863.723 C 1539.07 855.924 1534.59 786.374 1534.21 775.372 C 1527.88 775.325 1521.75 775.593 1515.61 774.12 C 1507.51 774.865 1473.88 772.705 1466.17 771.054 L 1464.15 771.891 C 1462.4 777.301 1465.62 850.642 1465.59 863.513 C 1477.33 863.982 1521.12 863.017 1529.29 865.087 z M 1376.37 757.395 C 1402.53 758.284 1427.07 761.128 1453.84 761.705 C 1452.65 735.052 1449.08 708.557 1443.19 682.535 C 1419.87 679.867 1389.81 678.898 1368.05 675.728 C 1370.7 703.534 1375.33 728.99 1376.37 757.395 z M 1455.48 1060.94 L 1457.81 1061.47 C 1481.39 1060.81 1505.67 1057.86 1529.14 1055.34 C 1531.61 1029.25 1534.32 1003.31 1534.87 977.088 C 1519.44 977.62 1504.08 978.168 1488.63 978.237 C 1483.43 978.26 1465.84 977.311 1462.46 979.994 L 1462.03 983.837 C 1461.96 992.291 1456.87 1056 1455.48 1060.94 z M 1462.47 763.306 L 1534.03 767.296 C 1532.21 757.967 1531.5 747.664 1530.09 738.1 C 1527.62 721.839 1524.88 705.619 1521.89 689.446 C 1509.17 689.034 1465.35 685.448 1453.26 683.259 C 1455.33 709.637 1461.53 735.161 1462.47 763.306 z M 1544.32 966.646 C 1557.7 967.183 1586.82 961.793 1601.58 960.325 C 1601.7 930.857 1603.16 900.314 1603.29 870.151 C 1588.26 870.062 1571.6 873.103 1557.03 872.131 C 1553.79 872.411 1549.34 872.4 1546.79 874.031 C 1545.89 884.46 1546.41 895.516 1546.01 906.066 C 1545.24 926.321 1544.43 946.36 1544.32 966.646 z M 1514.23 636.984 C 1522.32 653.743 1524.83 665.51 1530.23 683.035 C 1547.46 685.447 1568.38 688.653 1585.5 689.375 C 1580.59 673.353 1577.82 657.343 1566.44 644.888 C 1558.03 642.626 1523.34 637.366 1514.23 636.984 z M 1348.62 605.346 C 1368.84 607.765 1402.22 609.858 1420.65 614.101 C 1415.71 606.894 1412.42 601.775 1406.12 595.702 C 1385 591.683 1354.03 590.616 1334.51 585.772 C 1339.1 592.379 1343.8 598.904 1348.62 605.346 z M 1601.47 1046.13 C 1601.14 1061.08 1599.14 1073.17 1596.76 1087.8 C 1596.34 1090.43 1593.49 1106.27 1593.63 1107.8 C 1603.28 1102.94 1628.87 1089.28 1635.87 1082.38 C 1638.25 1074.46 1646.1 1033.21 1645.82 1026.19 C 1630.79 1033.39 1615.83 1039.34 1601.47 1046.13 z M 1590.61 769.248 C 1594.2 769.262 1595.12 769.387 1598.69 768.45 C 1599.93 759.288 1590.92 707.901 1587.73 697.546 C 1569.2 694.8 1548.75 694.369 1530.14 691.161 C 1533.96 705.534 1542.57 753.231 1540.98 767.004 C 1548.9 768.916 1580.38 768.676 1590.61 769.248 z M 1347.8 1209.99 C 1358.31 1210.65 1420.92 1213.54 1426.93 1209.8 L 1427.24 1209.23 C 1430.74 1189.88 1433.48 1169.96 1436.93 1150.41 C 1419.09 1152.59 1372.27 1149 1352.86 1147.76 C 1351.12 1159.5 1349.88 1176.58 1349.71 1188.33 C 1348.53 1193.16 1348.14 1204.51 1347.8 1209.99 z M 1663.73 943.82 C 1670.54 941.094 1681.7 934.973 1688.53 931.515 C 1691.02 916.966 1691.9 877.014 1692.41 861.135 L 1690.77 859.683 C 1683.04 860.829 1673.22 862.51 1665.58 862.644 C 1665.54 870.097 1665.89 883.01 1665.3 890.023 C 1666.3 904.54 1664.55 928.724 1663.73 943.82 z M 1702.93 969.601 C 1703.2 961.71 1707.61 940.388 1706.84 935.472 C 1704.2 934.255 1703.38 934.535 1700.46 934.576 C 1699.37 938.346 1696.8 965.864 1698.06 968.258 C 1700.12 968.976 1700.79 969.234 1702.93 969.601 z M 1610.26 643.503 C 1609.45 626.519 1584.58 625.518 1571.25 624.095 C 1571.78 641.12 1593.97 638.092 1605.14 642.598 C 1606.9 643.308 1608.41 643.397 1610.26 643.503 z M 1594.9 691.451 C 1609.6 693.258 1622.92 694.672 1637.32 698.36 C 1633.79 680.041 1628.37 670.974 1621.07 654.291 C 1605.2 654.459 1594.25 651.734 1579.05 647.134 C 1587.65 665.093 1590.14 672.328 1594.9 691.451 z M 1353.88 1140.64 C 1377.31 1141.75 1400.64 1142.79 1424.09 1142.36 C 1428.31 1142.28 1433.1 1142.1 1437.25 1142.29 C 1438.51 1122.44 1443.35 1091.95 1445.9 1071.37 C 1436.34 1071.45 1414.03 1072.03 1405.63 1070.11 C 1398.31 1070.61 1361.61 1067.4 1359.45 1068.43 C 1358.81 1070.07 1357.95 1072.07 1357.41 1073.69 C 1359.07 1078.93 1355.39 1134.2 1353.88 1140.64 z M 1662.37 770.69 L 1687.09 770.58 C 1686.01 751.033 1680.39 729.586 1679.72 712.955 C 1675.06 712.345 1654.5 709.45 1650.53 708.073 C 1656.62 728.483 1660.59 749.466 1662.37 770.69 z M 1612.46 861.161 C 1625.17 859.515 1643.36 857.069 1655.96 856.55 C 1655.75 838.712 1655.04 796.717 1652.4 779.738 C 1650.11 777.702 1647.4 778.177 1643.71 778.051 C 1633.96 778.33 1618.23 778.957 1608.92 777.137 C 1610.62 805.831 1612.37 832.423 1612.46 861.161 z M 1501.74 633.021 C 1483.49 629.968 1451.46 626.616 1435.29 622.741 C 1441.35 638.227 1446.7 659.576 1451.14 675.79 C 1466.16 676.198 1481.98 678.476 1497.04 679.894 C 1503.19 680.474 1514.37 680.844 1519.91 681.732 C 1514.56 661.679 1512.51 650.792 1501.74 633.021 z M 1490.68 621.149 C 1490.3 618.214 1490.42 615.021 1487.88 613.118 C 1478.32 605.976 1435.4 599.846 1424.72 599.939 C 1428.64 621.617 1472.37 615.344 1490.68 621.149 z M 1543.23 775.512 C 1543.4 785.332 1545.04 862.609 1546.78 865.499 C 1557.71 863.289 1589.39 862.883 1602.81 861.864 C 1603.26 831.563 1601.85 807.011 1600.36 776.951 C 1591.12 778.015 1557.52 775.141 1543.23 775.512 z M 1445.34 1140.65 C 1468.05 1141.13 1495.29 1133.99 1517.56 1132.37 C 1522.87 1111.19 1524.78 1085.67 1528.11 1063.86 C 1511.75 1065.86 1475.61 1070.4 1459.79 1068.97 C 1458.47 1069.37 1455.3 1070 1455.04 1070.89 C 1450.05 1087.69 1449.58 1125.45 1445.34 1140.65 z M 1656.21 1013.48 C 1662.38 1008.69 1680.14 996.975 1683.56 992.512 C 1685.96 985.11 1687.61 950.66 1689.73 937.749 L 1688.35 938.688 C 1680.8 943.92 1673.9 945.813 1665.74 949.754 C 1662.43 951.349 1662.57 952.161 1661.9 954.812 C 1658.79 973.44 1660.51 992.771 1656.21 1013.48 z M 1591.83 1048.42 C 1573.37 1053.05 1554.95 1058.11 1536.44 1062.43 C 1535.96 1071.31 1526.93 1128.22 1527.37 1129.65 L 1528.3 1129.72 C 1540.55 1126 1579.18 1117.28 1584.96 1109.3 C 1586.15 1104.59 1593.79 1050.41 1593.2 1048.53 L 1591.83 1048.42 z M 1332.24 602.734 C 1332.37 595.907 1332.5 595.104 1327.92 590.412 C 1327.16 589.636 1326.38 588.871 1325.6 588.118 C 1314.33 586.96 1308.21 585.485 1296.71 586.204 C 1303.28 597.761 1319.5 603.162 1332.24 602.734 z M 1642.19 647.829 C 1641.71 637.676 1637.19 638.152 1628.4 635.862 C 1628.6 645.728 1633.71 645.345 1642.19 647.829 z M 1679.18 1019.15 C 1678.93 1014.44 1679.78 1014.69 1677.28 1012.38 C 1670.52 1011.4 1662.58 1018.16 1657.56 1022.4 C 1656.35 1029.13 1652.46 1043.93 1656.43 1049.22 C 1670.58 1041.36 1655.79 1020.85 1679.18 1019.15 z M 1707.49 768.966 C 1708.32 762.932 1708.49 759.089 1705.72 753.701 C 1702.67 751.344 1704.37 752.138 1700.3 751.555 C 1698.87 756.746 1696.73 764.635 1701.38 768.618 C 1703.62 768.82 1705.24 768.948 1707.49 768.966 z M 1343.36 612.054 C 1317.16 609.005 1290.48 608.351 1264.34 604.79 C 1270.92 624.186 1272.93 642.314 1277.35 661.933 C 1295.81 663.614 1314.46 664.541 1332.97 665.647 C 1340.42 666.092 1351.71 667.715 1358.64 667.633 C 1356.08 650.48 1349.52 628.532 1343.36 612.054 z M 1686.91 679.609 C 1683.34 676.682 1684.35 676.576 1680.6 676.325 C 1677.99 681.052 1685.71 694.494 1688.15 699.431 C 1690.48 703.443 1688.87 701.956 1693.36 703.838 L 1694.73 702.95 C 1696.3 693.949 1688.85 687.665 1686.91 679.609 z M 1612.49 868.79 C 1612.39 899.457 1611.83 925.885 1610.55 956.397 C 1613 957.699 1613.44 956.967 1616.91 956.393 C 1628.74 953.066 1640.63 949.597 1652.58 946.742 C 1653.89 934.627 1657.68 873.592 1655.23 865.406 C 1651.5 864.58 1649.52 865.196 1645.65 865.777 C 1634.82 866.882 1623.33 868.022 1612.49 868.79 z M 1594.01 1139.39 C 1597.79 1134 1610.85 1118.59 1603.7 1112.9 L 1601.77 1112.68 C 1597.94 1115.42 1593.53 1118.42 1589.9 1121.31 C 1589.67 1127.07 1589.01 1132.72 1590.43 1138.22 C 1592.59 1139.7 1591.45 1139.21 1594.01 1139.39 z M 1548.49 620.574 L 1547.84 620.143 C 1539.08 618.385 1511.81 610.805 1505.71 612.727 C 1503.99 615.075 1504.5 613.708 1505.02 617.244 C 1511.25 625.389 1542.74 633.484 1551.49 629.366 C 1553.88 625.071 1551.65 623.759 1548.49 620.574 z M 1702.47 858.793 C 1701.9 880.182 1702.32 906.027 1697.79 926.476 C 1704.43 922.528 1706.32 920.97 1711.64 915.791 C 1713.4 902.386 1713.1 859.08 1715.45 852.136 C 1708.63 856.671 1704.12 854.872 1702.47 858.793 z M 1595.24 1039.3 C 1595.95 1031.66 1601.13 971.043 1599.11 968.409 L 1597.61 968.708 C 1579.69 971.407 1561.83 973.134 1544.32 975.708 C 1543.83 987.185 1537.57 1046.76 1538.95 1052.58 L 1541.19 1052.6 C 1557.6 1048.88 1579.26 1044.24 1595.24 1039.3 z M 1658.39 665.179 L 1657.28 665.094 C 1649.9 664.482 1642.77 661.149 1638.49 664.64 C 1638.33 668.064 1638.01 666.41 1639.95 669.653 C 1644.74 672.848 1649.36 669.506 1654.28 672.617 C 1654.6 675.754 1655.09 674.476 1653.37 676.727 C 1648.8 677.031 1649.03 676.275 1646.02 678.563 C 1644.38 683.715 1647 689.378 1648.69 694.72 C 1657.3 701.934 1660.15 698.744 1670.39 701.721 L 1672.43 700.815 C 1672.66 694.82 1662.57 669.601 1658.39 665.179 z M 1711 779.108 C 1706.95 779.08 1703.11 779.086 1699.07 778.824 C 1701 801.039 1702.41 827.058 1702.07 849.394 C 1706.92 848.53 1709.45 848.905 1712.78 846.042 C 1713.65 842.633 1713.59 841.824 1713.66 838.423 C 1712.74 826.669 1714.42 786.786 1711 779.108 z M 1351.28 614.006 C 1358.45 631.254 1362.78 649.458 1366.92 667.616 C 1391.98 669.572 1417.25 671.452 1442.14 674.946 C 1438.12 657.918 1433.23 637.187 1425.95 621.467 L 1351.28 614.006 z M 1647.34 1016.68 C 1650.01 999.56 1651.33 973.609 1652.16 955.94 L 1650.46 955.371 C 1636.01 959.102 1624.06 962.817 1609.3 965.844 C 1609 988.622 1606.14 1012.28 1605.24 1035.06 C 1605.71 1035.42 1606.11 1035.94 1606.69 1036.07 C 1617.79 1030.84 1638.29 1022.57 1647.34 1016.68 z M 1513.38 1196.06 C 1552.1 1181.37 1570.57 1188.46 1576.68 1141.06 C 1577.38 1135.65 1581.77 1127.28 1581.49 1122.22 L 1579.49 1122 C 1559.52 1128.73 1543.94 1132.73 1524.35 1138.51 C 1523.04 1145.74 1511.37 1194.79 1511.59 1195.84 L 1513.38 1196.06 z M 1598.13 699.769 C 1603.16 722.039 1604.61 743.919 1607.97 766.37 C 1608.35 768.872 1609.32 768.832 1611.24 769.856 C 1617.54 769.66 1637.23 769.32 1643.39 770.121 C 1646.63 770.166 1647.72 770.082 1650.96 769.698 C 1654.17 762.961 1642.68 715.326 1640.55 706.565 C 1628.87 704.023 1610.5 701.782 1598.13 699.769 z M 1663.15 779.259 C 1663.93 805.625 1665.38 828.036 1665.62 855.172 C 1673.63 853.434 1680.81 851.863 1688.95 850.698 L 1691.17 850.153 C 1693.09 842.76 1690.02 790.321 1689.65 779.235 L 1663.15 779.259 z M 1516.96 1140.45 C 1497.4 1143.62 1478.12 1146.36 1458.39 1148.21 C 1453.23 1148.7 1447.61 1149.22 1442.54 1150.17 C 1441.53 1164.2 1439.33 1176.75 1437.09 1190.61 C 1436.44 1194.63 1434.09 1207.15 1434.28 1210.55 C 1446.61 1208.36 1458.35 1207.04 1471.6 1204.69 C 1493.71 1200.77 1506.71 1202.92 1509.12 1176.01 C 1509.89 1167.46 1517.7 1148 1516.96 1140.45 z" fill="url(#Gradient29)" transform="translate(0,0)"/>
<path d="M 626.504 884.862 C 626.068 880.799 625.719 876.727 625.458 872.649 C 623.634 836.337 622.896 799.978 623.248 763.621 C 623.3 739.329 623.39 715.012 625.815 690.97 C 630.144 648.042 653.306 606.381 692.569 586.52 C 727.016 569.096 764.228 568.922 801.556 566.929 L 802.733 567.037 C 813.933 567.962 826.892 566.59 836.849 567.507 C 830.331 569.549 803.006 565.568 799.554 570.149 C 798.588 578.911 788.596 580.206 782.528 582.979 C 786.547 581.143 775.036 589.638 778.504 586.427 C 785.263 586.831 798.344 588.531 802.97 583.523 C 806.469 579.735 805.369 578.522 810.673 576.223 C 813.165 577.568 813.218 577.789 816.094 577.426 L 816.345 579.008 L 811.452 584.328 L 812.083 585.388 C 816.468 585.524 815.208 585.055 816.644 584.873 C 834.683 582.583 854.772 584.648 873.008 583.378 C 874.343 583.285 877.673 580.022 878.7 578.963 L 881.355 581.513 L 881.326 581.17 C 884.886 584.497 891.879 584.188 896.807 583.974 C 913.03 583.271 934.387 586.313 949.927 582.538 C 946.526 588.655 893.647 582.198 883.407 586.148 L 882.637 587.601 C 890.567 589.985 943.345 586.172 946.119 588.612 C 942.192 610.746 937.411 630.304 935.334 652.853 C 929.515 652.798 897.408 651.907 894.264 653.918 L 895.427 654.001 C 904.827 654.609 911.593 653.576 921.302 654.692 C 914.536 654.822 868.912 655.22 866.618 657.095 C 882.81 661.61 897.232 657.11 907.44 659.834 C 892.362 660.367 877.28 660.822 862.197 661.201 C 860.899 678.465 857.833 694.412 857.985 711.684 C 857.253 717.765 856.046 729.14 857.29 734.917 C 860.002 736.932 859.703 736.287 863.675 736.649 C 860.793 737.332 860.969 737.327 858.032 736.964 C 851.123 728.277 861.44 671.079 859.83 662.765 L 858.101 662.619 C 856.087 673.145 853.552 735.473 853.083 736.453 C 847.885 738.131 832.405 738.314 825.742 738.8 L 825.471 739.663 L 825.127 738.882 L 823.34 739.532 C 831.768 741.512 847.775 741.14 857.021 741.138 L 851.026 741.78 C 850.637 771.959 851.433 795.788 853.224 825.788 C 839.81 825.917 817.131 825.54 804.489 826.883 C 815.107 827.464 825.664 827.356 836.295 827.359 C 825.981 828.889 810.299 828.235 799.576 828.346 L 737.546 828.969 C 727.913 828.976 711.523 827.88 703.045 830.278 L 702.268 831.423 C 711.978 835.348 755.999 830.874 768.962 831.14 L 771.275 828.701 L 772.489 829.145 C 771.662 837.086 774.02 845.542 772.318 854.31 C 772.926 869.686 775.927 896.337 778.546 911.509 C 766.297 911.55 713.219 912.419 705.984 908.526 C 703.703 902.185 704.314 896.199 702.232 891.837 L 701.291 891.473 C 698.346 879.338 699.182 863.414 697.5 850.828 C 696.858 846.028 695.558 840.144 695.515 835.544 L 693.871 836.973 C 692.831 842.945 693.398 851.643 693.581 857.92 C 691.914 848.231 691.413 844.385 690.768 834.225 C 674.896 835.975 659.568 833.638 643.922 836.398 C 642.249 836.693 629.299 834.977 626.795 834.688 C 622.665 847.288 632.09 873.781 626.504 884.862 z" fill="rgba(229, 161, 222, 1)" transform="translate(0,0)"/>
<path d="M 773.165 744.426 C 800.925 742.941 823.001 741.987 851.026 741.78 C 850.637 771.959 851.433 795.788 853.224 825.788 C 839.81 825.917 817.131 825.54 804.489 826.883 L 775.835 827.003 C 774.027 798.917 774.933 771.09 773.165 744.426 z" fill="rgba(207, 117, 209, 1)" transform="translate(0,0)"/>
<path d="M 697.786 834.964 C 720.918 834.903 747.771 833.272 770.904 831.839 C 771.446 840.017 772.218 845.832 772.318 854.31 C 772.926 869.686 775.927 896.337 778.546 911.509 C 766.297 911.55 713.219 912.419 705.984 908.526 C 703.703 902.185 704.314 896.199 702.232 891.837 C 699.602 873.826 698.77 853.21 697.786 834.964 z" fill="rgba(208, 133, 218, 1)" transform="translate(0,0)"/>
<path d="M 878.355 589.406 C 899.165 589.998 925.156 589.046 946.119 588.612 C 942.192 610.746 937.411 630.304 935.334 652.853 C 929.515 652.798 897.408 651.907 894.264 653.918 C 883.478 654.166 872.693 654.481 861.91 654.863 C 867.77 632.595 870.488 611.67 878.355 589.406 z" fill="rgba(207, 117, 209, 1)" transform="translate(0,0)"/>
<path d="M 763.223 744.466 C 765.818 743.99 764.877 744.008 767.441 744.492 C 768.746 749.367 767.867 757.121 768.371 762.31 C 770.148 780.632 767.712 810.029 770.044 827.453 C 747.215 827.54 725.68 828.384 702.751 827.795 C 700.024 827.731 700.14 827.804 697.608 826.845 C 695.153 819.362 697.055 760.686 696.314 747.359 C 718.256 746.937 741.251 745.593 763.223 744.466 z" fill="rgba(208, 133, 218, 1)" transform="translate(0,0)"/>
<path d="M 839.597 661.449 C 845.232 661.212 851.417 661.272 857.104 661.223 C 853.547 688.641 853.329 708.426 852.983 736.098 C 835.147 737.877 809.167 737.559 790.75 737.815 L 772.969 737.713 C 776.113 718.768 775.934 699.418 779.489 680.528 C 780.413 675.617 781.093 670.714 781.369 665.724 C 801.383 663.034 819.44 662.194 839.597 661.449 z" fill="rgba(208, 133, 218, 1)" transform="translate(0,0)"/>
<path d="M 867.539 590.481 C 869.791 590.038 868.93 590.062 871.198 590.597 C 871.751 593.927 859.212 647.347 857.763 655.827 C 834.447 656.829 812.081 656.831 788.75 656.85 C 786.251 657.009 787.125 657.171 784.788 656.109 C 784.697 646.922 800.601 603.113 805.514 593.443 C 825.837 592.76 847.115 591.403 867.539 590.481 z" fill="rgba(208, 133, 218, 1)" transform="translate(0,0)"/>
<path d="M 930.286 906.641 C 935.189 906.312 937.275 905.968 942.085 904.911 C 950.182 930.951 950.704 932.061 965.013 956.17 C 967.815 960.179 966.972 960.321 970.749 961.902 C 978.002 961.072 982.474 957.015 989.977 953.981 C 979.389 966.095 973.933 970.614 959.83 978.49 C 949.408 978.356 944.99 979.017 936.67 986.064 L 936.306 988.015 C 927.932 989.18 920.009 988.268 910.742 989.792 C 906.533 990.484 894.088 993.792 892.729 993.753 L 891.012 995.303 C 893.081 1001.95 897.021 1015.2 900.43 1020.75 L 897.349 1023.3 C 891.869 1014.85 886.217 994.98 881.596 983.967 C 880.49 981.868 880.074 981.418 878.583 979.541 L 877.341 979.748 L 878.068 978.495 C 871.877 978.625 855.728 980.834 848.984 981.708 C 832.054 983.901 819.252 984.756 802.216 984.964 C 799.422 969.885 793.549 955.514 790.936 939.186 C 790.463 941.799 791.102 940.774 789.54 942.626 C 788.021 936.104 783.806 921.06 784.389 915.382 C 790.739 914.165 807.033 915.402 814.906 914.979 C 834.662 913.919 855.03 911.889 874.621 910.88 C 886.911 910.247 919.422 904.5 930.286 906.641 z" fill="rgba(185, 106, 193, 1)" transform="translate(0,0)"/>
<path d="M 785.397 917.28 C 812.531 916.344 835.737 915.554 862.717 912.776 C 865.324 923.046 879.221 973.767 878.068 978.495 C 871.877 978.625 855.728 980.834 848.984 981.708 C 832.054 983.901 819.252 984.756 802.216 984.964 C 799.422 969.885 793.549 955.514 790.936 939.186 C 789.177 932.019 787.431 924.322 785.397 917.28 z" fill="rgba(207, 117, 209, 1)" transform="translate(0,0)"/>
<path d="M 790.936 939.186 C 790.463 941.799 791.102 940.774 789.54 942.626 C 788.021 936.104 783.806 921.06 784.389 915.382 C 790.739 914.165 807.033 915.402 814.906 914.979 C 834.662 913.919 855.03 911.889 874.621 910.88 C 886.911 910.247 919.422 904.5 930.286 906.641 L 868.249 913.21 C 872.752 934.114 878.162 956.831 884.594 977.296 C 899.854 973.034 918.593 968.286 933.154 962.848 L 935.414 965.325 C 922.147 974.11 889.452 980.158 886.48 982.833 C 886.69 986.009 887.431 986.747 889.08 989.43 C 889.474 990.888 890.184 994.4 891.012 995.303 C 893.081 1001.95 897.021 1015.2 900.43 1020.75 L 897.349 1023.3 C 891.869 1014.85 886.217 994.98 881.596 983.967 C 880.49 981.868 880.074 981.418 878.583 979.541 L 877.341 979.748 L 878.068 978.495 C 879.221 973.767 865.324 923.046 862.717 912.776 C 835.737 915.554 812.531 916.344 785.397 917.28 C 787.431 924.322 789.177 932.019 790.936 939.186 z" fill="rgba(208, 133, 218, 1)" transform="translate(0,0)"/>
<path d="M 889.08 989.43 C 900.228 986.637 915.829 983.104 927.002 981.674 C 930.746 982.976 933.116 984.259 936.67 986.064 L 936.306 988.015 C 927.932 989.18 920.009 988.268 910.742 989.792 C 906.533 990.484 894.088 993.792 892.729 993.753 L 891.012 995.303 C 890.184 994.4 889.474 990.888 889.08 989.43 z" fill="rgba(207, 117, 209, 1)" transform="translate(0,0)"/>
<path d="M 953.055 954.279 C 955.462 955.69 957.732 957.135 960.082 958.628 L 960.094 959.832 L 957.292 960.371 C 949.347 959.927 943.476 964.23 935.414 965.325 L 933.154 962.848 C 938.099 962.554 945.3 956.915 953.055 954.279 z" fill="rgba(208, 133, 218, 1)" transform="translate(0,0)"/>
<path d="M 1016.07 741.863 L 1023.01 742.088 C 1049.22 742.019 1075.42 742.855 1101.56 744.596 C 1100.99 772.788 1100.75 802.991 1098.49 830.979 C 1085.48 829.904 1072.12 828.826 1059.16 827.975 C 1052.76 827.554 1027.1 827.156 1022.82 825.835 C 1019.95 824.809 1019.15 825.237 1015.94 825.414 C 1015.09 798.308 1015.78 769.008 1016.07 741.863 z" fill="url(#Gradient28)" transform="translate(0,0)"/>
<path d="M 1016.07 741.863 L 1023.01 742.088 C 1022.39 769.999 1022.33 797.921 1022.82 825.835 C 1019.95 824.809 1019.15 825.237 1015.94 825.414 C 1015.09 798.308 1015.78 769.008 1016.07 741.863 z" fill="rgba(207, 117, 209, 1)" transform="translate(0,0)"/>
<path d="M 931.271 741.591 L 938.414 741.201 C 960.895 740.326 993.482 740.828 1016.07 741.863 C 1015.78 769.008 1015.09 798.308 1015.94 825.414 C 1009.87 827.213 950.475 824.061 939.005 823.906 L 935.019 822.515 L 933.178 823.62 C 932.888 795.295 930.951 771.028 931.271 741.591 z" fill="url(#Gradient27)" transform="translate(0,0)"/>
<path d="M 931.271 741.591 L 938.414 741.201 C 938.208 768.77 938.405 796.342 939.005 823.906 L 935.019 822.515 L 933.178 823.62 C 932.888 795.295 930.951 771.028 931.271 741.591 z" fill="rgba(208, 133, 218, 1)" transform="translate(0,0)"/>
<path d="M 857.021 741.138 C 861.172 739.664 923.389 739.064 928.497 740.598 L 931.271 741.591 C 930.951 771.028 932.888 795.295 933.178 823.62 C 912.852 824.175 876.52 823.572 858.14 825.318 C 864.809 827.607 874.598 824.481 882.374 826.405 C 876.198 828.064 845.797 825.802 836.295 827.359 C 825.664 827.356 815.107 827.464 804.489 826.883 C 817.131 825.54 839.81 825.917 853.224 825.788 C 851.433 795.788 850.637 771.959 851.026 741.78 L 857.021 741.138 z" fill="rgba(185, 106, 193, 1)" transform="translate(0,0)"/>
<path d="M 857.021 741.138 C 861.172 739.664 923.389 739.064 928.497 740.598 C 907.24 742.042 879.383 742.005 857.769 742.184 L 858.14 825.318 C 864.809 827.607 874.598 824.481 882.374 826.405 C 876.198 828.064 845.797 825.802 836.295 827.359 C 825.664 827.356 815.107 827.464 804.489 826.883 C 817.131 825.54 839.81 825.917 853.224 825.788 C 851.433 795.788 850.637 771.959 851.026 741.78 L 857.021 741.138 z" fill="rgba(208, 133, 218, 1)" transform="translate(0,0)"/>
<path d="M 907.44 659.834 C 914.835 660.517 926.552 659.084 934.361 658.708 C 933.526 683.496 932.064 709.578 932.206 734.193 C 907.561 734.349 882.844 734.968 858.233 734.771 C 858.287 728.289 858.666 717.777 857.985 711.684 C 857.833 694.412 860.899 678.465 862.197 661.201 C 877.28 660.822 892.362 660.367 907.44 659.834 z" fill="rgba(207, 117, 209, 1)" transform="translate(0,0)"/>
<path d="M 819.207 1038.5 L 821.463 1037.5 C 822.584 1031.15 805.041 999.863 807.064 992.608 C 810.692 991.009 870.88 985.722 881.596 983.967 C 886.217 994.98 891.869 1014.85 897.349 1023.3 C 898.776 1026.56 899.962 1030.24 902.593 1032.45 L 904.935 1032.91 L 906.313 1033.06 C 892.626 1037.04 830.823 1042.5 819.207 1038.5 z" fill="rgba(185, 106, 193, 1)" transform="translate(0,0)"/>
<path d="M 900.43 1020.75 C 903.253 1024.85 906.439 1027.77 904.935 1032.91 L 902.593 1032.45 C 899.962 1030.24 898.776 1026.56 897.349 1023.3 L 900.43 1020.75 z" fill="rgba(207, 117, 209, 1)" transform="translate(0,0)"/>
<path d="M 1271.12 960.473 C 1298.29 962.454 1331.26 971.124 1360.01 973.115 C 1362.94 973.907 1364.95 974.15 1367.5 975.679 C 1366.47 1003.1 1362.11 1031.33 1360.97 1059.95 C 1356.72 1062.24 1356.43 1063.03 1352.8 1059.87 C 1346.95 1058.43 1336.36 1057.35 1329.99 1056.15 C 1308.38 1052.07 1284.89 1049.04 1263.82 1043.12 C 1264.61 1020.03 1268.8 984.224 1271.12 960.473 z M 1286.11 1023.4 L 1296.08 1024.13 C 1305.17 1033.61 1306.21 1039.75 1312.74 1049.94 C 1313.86 1051.68 1346.87 1057.07 1349.87 1056.61 L 1350.67 1055.68 C 1351.54 1030.72 1357.26 1001.14 1357.08 975.28 C 1338.46 973.951 1312.34 968.258 1293.44 966.134 C 1287.3 965.443 1278.65 962.928 1273.17 962.666 C 1273.64 976.403 1267.22 994.921 1269.83 1007.2 C 1279.6 1015.45 1275.96 1006.53 1286.11 1023.4 z" fill="rgba(41, 35, 50, 1)" transform="translate(0,0)"/>
<path d="M 1360.01 973.115 C 1362.94 973.907 1364.95 974.15 1367.5 975.679 C 1366.47 1003.1 1362.11 1031.33 1360.97 1059.95 C 1356.72 1062.24 1356.43 1063.03 1352.8 1059.87 L 1360.01 973.115 z" fill="rgba(207, 117, 209, 1)" transform="translate(0,0)"/>
<path d="M 1190.53 846.561 C 1215.48 847.758 1246.11 854.636 1273.7 856.175 C 1271.38 886.255 1268.43 922.747 1264.08 952.636 C 1245.21 949.888 1199.34 938.551 1181.11 933.429 C 1183.71 904.432 1188.09 875.589 1190.53 846.561 z" fill="rgba(41, 35, 50, 1)" transform="translate(0,0)"/>
<path d="M 1022.08 832.117 C 1047.11 833.787 1072.91 835.617 1097.96 836.026 C 1096.97 860.349 1092.89 890.467 1092.9 913.173 C 1092.88 917.943 1093.14 923.584 1092.18 928.16 C 1091.98 934.53 1091.91 964.465 1091.23 967.991 L 1090.96 961.528 C 1088.36 960.655 1085.79 959.684 1083.27 958.618 C 1076.07 955.582 1069.06 951.292 1062.36 947.964 C 1040.23 936.971 1035.72 929.887 1026.94 908.014 C 1026.2 906.055 1025.57 901.813 1025.17 899.55 C 1024.25 877.067 1023.22 854.589 1022.08 832.117 z" fill="url(#Gradient26)" transform="translate(0,0)"/>
<path d="M 1025.17 899.55 C 1042.51 904.337 1073.89 909.164 1092.9 913.173 C 1092.88 917.943 1093.14 923.584 1092.18 928.16 C 1091.98 934.53 1091.91 964.465 1091.23 967.991 L 1090.96 961.528 C 1088.36 960.655 1085.79 959.684 1083.27 958.618 C 1076.07 955.582 1069.06 951.292 1062.36 947.964 C 1040.23 936.971 1035.72 929.887 1026.94 908.014 C 1026.2 906.055 1025.57 901.813 1025.17 899.55 z" fill="rgba(84, 26, 115, 1)" transform="translate(0,0)"/>
<path d="M 1025.17 899.55 C 1042.51 904.337 1073.89 909.164 1092.9 913.173 C 1092.88 917.943 1093.14 923.584 1092.18 928.16 C 1092.2 924.719 1092.64 921.823 1091.04 918.896 C 1083.19 916.168 1032.63 905.737 1026.94 908.014 C 1026.2 906.055 1025.57 901.813 1025.17 899.55 z" fill="rgba(207, 117, 209, 1)" transform="translate(0,0)"/>
<path d="M 1195.23 750.935 C 1217.5 751.437 1254.93 756.032 1278.55 758.062 C 1278.11 788.876 1276.8 819.67 1274.6 850.408 C 1246.74 846.553 1218.82 843.597 1190.94 839.569 C 1192.31 808.887 1194.73 782.719 1195.23 750.935 z M 1250.03 764.762 C 1248.89 769.924 1247.44 775.899 1246.53 781.051 C 1232.46 794.101 1241.39 795.221 1248.28 808.008 C 1243.47 813.013 1239.58 816.064 1238.89 823.068 C 1242.33 832.289 1253.36 831.296 1261.96 834.361 C 1265.11 837.401 1269.59 842.185 1273.4 837.786 C 1273.91 828.801 1273.38 818.81 1273.98 810.546 C 1275.28 792.697 1276.05 778.085 1275.91 760.122 C 1260.14 760.503 1246.4 756.59 1232.07 756.158 C 1236.05 764.66 1241.46 764.026 1250.03 764.762 z" fill="rgba(41, 35, 50, 1)" transform="translate(0,0)"/>
<path d="M 1109.16 745.104 C 1135.75 746.507 1162.33 748.193 1188.88 750.162 C 1188.51 778.993 1186.29 810.463 1184.74 839.327 C 1158.98 837.474 1132.24 831.893 1105.4 830.762 C 1106.22 802.709 1108.18 773.535 1109.16 745.104 z" fill="url(#Gradient25)" transform="translate(0,0)"/>
<path d="M 1263.85 1050.27 C 1283.29 1056.22 1307.59 1059.1 1327.78 1062.98 C 1334.53 1064.27 1344.78 1065.12 1351.08 1066.86 L 1351.71 1068.75 L 1355.06 1068.62 C 1356.26 1071.27 1355.91 1070.29 1356.14 1073.31 L 1357.41 1073.69 C 1359.07 1078.93 1355.39 1134.2 1353.88 1140.64 C 1352.16 1139.1 1352.91 1139.6 1352.36 1136.31 L 1351.27 1138.99 L 1349.29 1139.55 L 1348.42 1138.24 C 1348.06 1138.87 1347.7 1139.51 1347.34 1140.15 C 1317.19 1135.5 1290.75 1128.91 1260.99 1122.38 C 1262.61 1098.49 1262.53 1074.26 1263.85 1050.27 z M 1296.41 1064.29 C 1294.17 1073.51 1293.08 1081.87 1291.06 1090.9 C 1299.72 1097.43 1312.7 1108.57 1322.54 1114.13 C 1324.74 1115.37 1330.6 1112.18 1335.73 1114.18 C 1344.03 1122.11 1333.56 1130 1340.39 1137.57 L 1343.92 1139.03 C 1346.57 1123.79 1346.68 1106.83 1347.24 1091.48 C 1347.52 1084.06 1348.87 1076.22 1349.15 1068.56 C 1329.82 1067.22 1298.91 1058.06 1281.22 1058.21 C 1283.02 1066.75 1288.26 1064.45 1296.41 1064.29 z" fill="rgba(41, 35, 50, 1)" transform="translate(0,0)"/>
<path d="M 1351.71 1068.75 L 1355.06 1068.62 C 1356.26 1071.27 1355.91 1070.29 1356.14 1073.31 L 1357.41 1073.69 C 1359.07 1078.93 1355.39 1134.2 1353.88 1140.64 C 1352.16 1139.1 1352.91 1139.6 1352.36 1136.31 L 1351.27 1138.99 L 1349.29 1139.55 L 1348.42 1138.24 C 1348.06 1138.87 1347.7 1139.51 1347.34 1140.15 C 1346.1 1127.45 1350.48 1083.52 1351.71 1068.75 z" fill="rgba(207, 117, 209, 1)" transform="translate(0,0)"/>
<path d="M 1190.16 664.893 C 1217.18 665.053 1244.61 668.25 1271.67 668.902 C 1275.86 694.068 1277.51 725.369 1279.03 751.203 C 1260.13 747.948 1214.64 745.568 1195.16 744.426 C 1194.23 717.512 1193.51 691.673 1190.16 664.893 z M 1250.42 685.075 L 1241.95 691.252 C 1246.72 702.563 1247.43 703.567 1247.25 715.645 C 1244.24 720.09 1238.82 726.392 1239.72 731.192 C 1250.46 738.597 1244.77 740.037 1249.87 746.089 C 1253.28 746.462 1256.7 746.767 1260.12 747.005 C 1265.78 748.683 1269.83 748.754 1275.69 748.865 C 1277.11 727.252 1272.23 692.666 1269.32 670.93 L 1253.9 670.985 L 1250.42 685.075 z" fill="rgba(41, 35, 50, 1)" transform="translate(0,0)"/>
<path d="M 1180.12 940.675 C 1206.35 946.366 1237.94 954.643 1263.71 958.892 C 1262.52 984.732 1258.92 1013.31 1257.18 1039.93 L 1256.67 1041.88 C 1250.29 1042.61 1184.4 1017.1 1176.4 1012.34 C 1177 990.832 1177.66 961.908 1180.12 940.675 z" fill="url(#Gradient24)" transform="translate(0,0)"/>
<path d="M 1016.03 658.213 L 1024.81 658.083 L 1099.53 660.245 C 1100.77 686.073 1101.36 711.929 1101.29 737.787 C 1091.13 737.324 1027.3 735.775 1021.87 734.163 C 1019.16 733.26 1018.8 733.644 1015.81 733.91 C 1015.62 708.677 1015.7 683.444 1016.03 658.213 z" fill="url(#Gradient23)" transform="translate(0,0)"/>
<path d="M 1016.03 658.213 L 1024.81 658.083 C 1022.53 660.094 1022.57 660.861 1022.47 664.896 C 1021.93 687.88 1021.96 711.188 1021.87 734.163 C 1019.16 733.26 1018.8 733.644 1015.81 733.91 C 1015.62 708.677 1015.7 683.444 1016.03 658.213 z" fill="rgba(207, 117, 209, 1)" transform="translate(0,0)"/>
<path d="M 1105.44 837.351 C 1131.01 839.761 1157.51 843.646 1183.07 844.259 C 1182.91 865.781 1177.15 907.169 1174.68 929.993 L 1174.5 931.274 C 1173.98 931.541 1173.46 931.808 1172.95 932.075 C 1152.71 927.19 1119.45 918.626 1100.49 914.204 C 1101.33 888.301 1103.41 863.175 1105.44 837.351 z" fill="url(#Gradient22)" transform="translate(0,0)"/>
<path d="M 1105.58 660.599 C 1131.51 660.944 1157.43 662.047 1183.3 663.908 C 1186.54 686.356 1187.28 720.077 1188.43 743.268 C 1163.1 742.122 1133.2 738.287 1109.02 737.943 C 1108.77 712.13 1107.63 686.332 1105.58 660.599 z" fill="url(#Gradient21)" transform="translate(0,0)"/>
<path d="M 821.745 831.5 L 852.918 831.182 C 854.328 852.954 857.147 886.52 861.846 907.637 C 847.146 907.934 832.45 908.439 817.764 909.151 C 808.118 910.254 794.507 910.526 784.702 910.793 C 782.411 899.757 775.51 843.442 778.238 834.386 C 785.018 831.165 811.767 832.805 821.745 831.5 z" fill="rgba(207, 117, 209, 1)" transform="translate(0,0)"/>
<path d="M 939.514 658.988 C 954.73 657.14 999.178 658.093 1016.03 658.213 C 1015.7 683.444 1015.62 708.677 1015.81 733.91 C 1011.65 734.615 995.237 734.243 990.397 734.209 L 938.731 733.845 C 938.673 708.89 938.934 683.936 939.514 658.988 z" fill="url(#Gradient20)" transform="translate(0,0)"/>
<path d="M 865.645 831.508 L 934.036 830.671 C 935.487 854.058 937.507 876.736 941.712 899.798 C 937.904 899.923 933.789 900.33 929.968 900.632 C 908.764 903.121 887.649 904.475 866.477 906.985 C 865.983 887.053 858.272 853.541 858.705 833.424 C 860.863 831.301 861.791 831.938 865.645 831.508 z" fill="rgba(185, 106, 193, 1)" transform="translate(0,0)"/>
<path d="M 1175.64 1019.21 C 1196.08 1029.21 1233.82 1043 1255.98 1048.92 C 1256.26 1070.51 1254.74 1096.8 1254.17 1118.76 L 1253.51 1119.33 C 1246.02 1119.27 1188.36 1091.21 1180.48 1086.55 C 1177.2 1068.78 1176.46 1038.01 1175.64 1019.21 z" fill="url(#Gradient19)" transform="translate(0,0)"/>
<path d="M 1261.85 1128.45 C 1282.51 1135.04 1323.73 1144.49 1345.34 1146.22 C 1344.14 1166.17 1342.62 1186.11 1340.78 1206.02 C 1340.64 1206.86 1340.1 1207.47 1339.58 1208.3 C 1327.93 1209.99 1277.54 1196.91 1265.98 1191.05 C 1262.97 1171.46 1262.54 1148.43 1261.85 1128.45 z" fill="rgba(41, 35, 50, 1)" transform="translate(0,0)"/>
<path d="M 1352.86 1147.76 C 1372.27 1149 1419.09 1152.59 1436.93 1150.41 C 1433.48 1169.96 1430.74 1189.88 1427.24 1209.23 L 1426.93 1209.8 C 1420.92 1213.54 1358.31 1210.65 1347.8 1209.99 C 1348.14 1204.51 1348.53 1193.16 1349.71 1188.33 C 1349.88 1176.58 1351.12 1159.5 1352.86 1147.76 z M 1349.95 1198.08 L 1351.04 1199.65 C 1357.61 1200.3 1364.81 1195.96 1368.8 1199.32 C 1368.38 1204.43 1367.81 1202.83 1369.96 1206.88 C 1372.88 1209.15 1375.43 1208.73 1379.23 1208.86 C 1392.05 1207.59 1410.48 1208.77 1424.32 1208.34 C 1427.8 1196.08 1432.28 1166.03 1431.94 1153.82 C 1419.59 1153.39 1405.62 1153.77 1393.1 1153.4 C 1386.81 1153.22 1357.78 1149.55 1354.76 1150.88 C 1356.33 1156.51 1364.01 1156.95 1362.15 1163.72 C 1358.16 1166.44 1357.56 1165.69 1352.37 1166.14 C 1352.56 1177.5 1351.12 1186.84 1349.95 1198.08 z" fill="rgba(41, 35, 50, 1)" transform="translate(0,0)"/>
<path d="M 1349.71 1188.33 C 1349.94 1191.85 1349.99 1194.55 1349.95 1198.08 L 1351.04 1199.65 C 1357.61 1200.3 1364.81 1195.96 1368.8 1199.32 C 1368.38 1204.43 1367.81 1202.83 1369.96 1206.88 C 1372.88 1209.15 1375.43 1208.73 1379.23 1208.86 C 1385.91 1211.7 1420.51 1211.32 1427.24 1209.23 L 1426.93 1209.8 C 1420.92 1213.54 1358.31 1210.65 1347.8 1209.99 C 1348.14 1204.51 1348.53 1193.16 1349.71 1188.33 z" fill="rgba(41, 35, 50, 1)" transform="translate(0,0)"/>
<path d="M 939.084 831.194 C 964.788 831.149 990.492 831.404 1016.19 831.958 C 1016.18 838.918 1019.57 897.497 1018.72 899.492 C 991.621 896.531 974.567 897.97 947.447 899.917 C 943.864 876.297 942.259 854.53 939.084 831.194 z" fill="rgba(84, 26, 115, 1)" transform="translate(0,0)"/>
<path d="M 1175.08 596.589 C 1200.26 599.024 1232.58 599.67 1256.22 603.124 C 1262.94 617.379 1268.08 645.65 1270.85 661.865 C 1246.56 661.386 1212.47 659.458 1188.49 657.395 C 1185.47 638.055 1182.56 614.435 1175.08 596.589 z" fill="url(#Gradient18)" transform="translate(0,0)"/>
<path d="M 707.813 916 C 716.659 918.621 766.744 917.311 780.149 917.093 C 783.088 936.79 791.164 965.911 797.257 984.825 C 786.163 986.112 737.238 985.877 727.544 982.936 C 722.481 979.166 709.792 925.552 707.813 916 z" fill="rgba(207, 117, 209, 1)" transform="translate(0,0)"/>
<path d="M 1098.39 919.867 C 1120.62 926.402 1150.92 933.694 1173.74 939.057 C 1173.08 961.943 1170.19 984.692 1169.6 1008.66 L 1168.8 1009.39 C 1162.69 1008.77 1105.34 978.755 1099.27 973.613 C 1098.5 955.493 1098.64 937.966 1098.39 919.867 z" fill="url(#Gradient17)" transform="translate(0,0)"/>
<path d="M 951.726 589.7 C 974.428 590.133 997.135 590.241 1019.84 590.023 C 1019.32 608.068 1018.65 632.918 1016.4 650.57 C 1014.26 652.663 1014.17 651.954 1010.25 652.195 C 991.173 652.952 959.994 653.246 941.199 651.864 C 945 631.818 947.57 611.006 951.726 589.7 z" fill="url(#Gradient16)" transform="translate(0,0)"/>
<path d="M 1097.48 592.706 C 1120.76 595.301 1145.65 595.213 1169.22 596.595 C 1176.35 611.651 1179.47 640.097 1181.9 657.042 C 1159.72 657.047 1128.2 654.185 1105.19 652.851 C 1103.78 634.473 1100.09 611.203 1097.48 592.706 z" fill="url(#Gradient15)" transform="translate(0,0)"/>
<path d="M 1264.34 604.79 C 1290.48 608.351 1317.16 609.005 1343.36 612.054 C 1349.52 628.532 1356.08 650.48 1358.64 667.633 C 1351.71 667.715 1340.42 666.092 1332.97 665.647 C 1314.46 664.541 1295.81 663.614 1277.35 661.933 C 1272.93 642.314 1270.92 624.186 1264.34 604.79 z M 1295.89 637.637 C 1289.23 641.056 1279.32 645.364 1276.92 652.595 C 1277.75 657.552 1281.48 659.198 1286.21 660.048 C 1303.26 663.109 1321.86 663.595 1339.03 663.293 C 1343.8 664.012 1349.98 665.582 1354.37 664.429 C 1357.39 658.023 1346.03 626.541 1343.32 619.063 C 1342.72 617.426 1342.1 615.798 1341.46 614.178 C 1325.91 614.107 1310.55 609.967 1295.97 610.034 L 1295.89 637.637 z" fill="rgba(41, 35, 50, 1)" transform="translate(0,0)"/>
<path d="M 1026.27 591.059 C 1048 590.958 1069.73 591.276 1091.44 592.012 C 1092.76 605.35 1098.61 640.336 1097.59 652 L 1096.04 652.999 C 1071.76 653.03 1047.49 652.661 1023.22 651.895 C 1024.55 632.229 1024.98 611.241 1026.27 591.059 z" fill="url(#Gradient14)" transform="translate(0,0)"/>
<path d="M 1516.96 1140.45 C 1517.7 1148 1509.89 1167.46 1509.12 1176.01 C 1506.71 1202.92 1493.71 1200.77 1471.6 1204.69 C 1458.35 1207.04 1446.61 1208.36 1434.28 1210.55 C 1434.09 1207.15 1436.44 1194.63 1437.09 1190.61 C 1439.33 1176.75 1441.53 1164.2 1442.54 1150.17 C 1447.61 1149.22 1453.23 1148.7 1458.39 1148.21 C 1478.12 1146.36 1497.4 1143.62 1516.96 1140.45 z M 1444.17 1152.1 C 1444.01 1162.03 1439.94 1197.09 1436.94 1205.99 C 1445.78 1206.8 1447.73 1207.28 1456.18 1204 C 1460.57 1201.9 1460.71 1201.25 1463.66 1197.11 C 1466.75 1195.85 1466.51 1195.9 1469.81 1196.44 C 1472.12 1198.47 1472.1 1199.07 1473.29 1201.88 C 1478.73 1203 1484.96 1197.9 1489.47 1196.74 C 1492.79 1195.89 1495.27 1196.59 1500.14 1195.33 C 1505.13 1189.69 1510.98 1157.63 1512.65 1148.57 C 1512.89 1147.23 1512.05 1146.72 1511.06 1145.47 C 1506.97 1144.57 1503.23 1145.19 1499.01 1145.53 C 1492.02 1146.1 1485.81 1147.85 1479.17 1148.47 C 1466.95 1149.63 1456.34 1150.19 1444.17 1152.1 z" fill="rgba(41, 35, 50, 1)" transform="translate(0,0)"/>
<path d="M 1181.25 1094.09 C 1207.25 1107.2 1228.27 1115.68 1254.36 1127.37 C 1256 1149.83 1256.35 1166.45 1258.88 1189.97 C 1243.99 1184.6 1208.96 1165.65 1194.16 1157.83 C 1188.03 1142.16 1183.94 1111.8 1181.25 1094.09 z" fill="url(#Gradient13)" transform="translate(0,0)"/>
<path d="M 1665.3 890.023 C 1661.94 877.247 1664 843.291 1663.2 827.971 C 1662.56 815.65 1660.09 788.61 1661.53 777.862 C 1663.81 776.525 1703.7 776.56 1709.29 776.914 L 1711 779.108 C 1706.95 779.08 1703.11 779.086 1699.07 778.824 C 1701 801.039 1702.41 827.058 1702.07 849.394 C 1706.92 848.53 1709.45 848.905 1712.78 846.042 C 1713.65 842.633 1713.59 841.824 1713.66 838.423 C 1713.98 840.75 1715.51 850.437 1715.45 852.136 C 1708.63 856.671 1704.12 854.872 1702.47 858.793 L 1701 857.548 C 1697.39 857.99 1695.57 859.358 1692.41 861.135 L 1690.77 859.683 C 1683.04 860.829 1673.22 862.51 1665.58 862.644 C 1665.54 870.097 1665.89 883.01 1665.3 890.023 z M 1665.62 855.172 C 1673.63 853.434 1680.81 851.863 1688.95 850.698 L 1691.17 850.153 C 1693.09 842.76 1690.02 790.321 1689.65 779.235 L 1663.15 779.259 C 1663.93 805.625 1665.38 828.036 1665.62 855.172 z" fill="rgba(207, 117, 209, 1)" transform="translate(0,0)"/>
<path d="M 1347.12 1216.15 C 1370.21 1218.67 1402.61 1218.74 1425.67 1217.19 C 1422.86 1229.77 1420.22 1242.85 1416.4 1255.12 C 1415.34 1257.28 1414.58 1258.38 1413.27 1260.38 C 1406.39 1263.39 1354.51 1260.32 1344.81 1259.65 C 1344.95 1245.12 1345.72 1230.61 1347.12 1216.15 z" fill="rgba(41, 35, 50, 1)" transform="translate(0,0)"/>
<path d="M 1106.02 985.309 C 1127.08 996.031 1148.21 1006.61 1169.4 1017.06 C 1169.56 1041.19 1170.32 1058.39 1172.58 1082.42 C 1124.76 1055.97 1119.33 1035.47 1106.02 985.309 z" fill="url(#Gradient12)" transform="translate(0,0)"/>
<path d="M 1579.49 1122 L 1581.49 1122.22 C 1581.77 1127.28 1577.38 1135.65 1576.68 1141.06 C 1570.57 1188.46 1552.1 1181.37 1513.38 1196.06 L 1511.59 1195.84 C 1511.37 1194.79 1523.04 1145.74 1524.35 1138.51 C 1543.94 1132.73 1559.52 1128.73 1579.49 1122 z M 1525.05 1140.61 C 1525.27 1146.89 1519.17 1169.13 1522.57 1171.61 C 1522.8 1171.78 1523.1 1171.82 1523.37 1171.93 C 1532.45 1170.41 1532.66 1166.5 1545.45 1164.41 C 1545.97 1159.97 1546.37 1158.35 1547.42 1154.09 C 1548.96 1147.86 1556.47 1138.45 1553.76 1133.23 L 1552.61 1132.89 C 1541.85 1138.22 1535.68 1136.89 1525.05 1140.61 z" fill="rgba(41, 35, 50, 1)" transform="translate(0,0)"/>
<path d="M 1499.36 1206.16 L 1501.55 1206.36 C 1499.78 1213.66 1491.39 1234.37 1487.94 1240.74 C 1480.2 1255.07 1440.21 1257.26 1424.23 1260.82 L 1421.93 1260.6 C 1421.63 1256.63 1430.38 1223.83 1431.81 1218 C 1453.85 1213.01 1474.63 1212.49 1499.36 1206.16 z" fill="rgba(41, 35, 50, 1)" transform="translate(0,0)"/>
<path d="M 1267.45 1200.3 C 1288.01 1206.68 1318.83 1214.2 1340.04 1215.22 C 1338.5 1227.68 1338 1244.2 1338.09 1256.67 L 1337.32 1257.28 C 1328.17 1257.64 1284.66 1243.58 1274.99 1239.15 C 1272.1 1228.46 1269.46 1211.43 1267.45 1200.3 z" fill="rgba(85, 44, 85, 1)" transform="translate(0,0)"/>
<path d="M 1194.85 1164.73 C 1198.69 1166.26 1203.78 1169.17 1207.49 1171.19 C 1224.61 1180.5 1242.45 1188.11 1259.93 1196.66 C 1263.44 1211.96 1263.46 1222.01 1268.34 1238.27 C 1254.81 1232.51 1240.8 1224.55 1227.64 1218.26 C 1204.15 1207.05 1202.19 1188.65 1194.85 1164.73 z" fill="url(#Gradient11)" transform="translate(0,0)"/>
<path d="M 1633.4 1094.89 C 1634.22 1095.08 1633.69 1094.89 1634.73 1095.95 C 1630.77 1108.05 1629.78 1128.5 1623.47 1138.47 C 1615.71 1150.72 1590.26 1164.57 1577.65 1173.04 L 1576.52 1172.62 C 1581.01 1154.75 1585.17 1136.8 1589 1118.77 C 1596.38 1113.13 1622.89 1100.62 1633.4 1094.89 z M 1589.9 1121.31 C 1589.67 1127.07 1589.01 1132.72 1590.43 1138.22 C 1592.59 1139.7 1591.45 1139.21 1594.01 1139.39 C 1597.79 1134 1610.85 1118.59 1603.7 1112.9 L 1601.77 1112.68 C 1597.94 1115.42 1593.53 1118.42 1589.9 1121.31 z" fill="rgba(2, 0, 2, 1)" transform="translate(0,0)"/>
<path d="M 964.388 904.576 C 966.549 904.406 968.711 904.267 970.876 904.161 C 980.213 903.668 1015.49 901.681 1021.24 906.834 C 1020.48 912.813 998.703 924.5 991.476 930.205 C 986.538 933.856 977.489 943.978 973.328 945.555 C 958.06 951.345 950.058 912.774 948.203 905.097 C 953.53 905.006 959.046 904.754 964.388 904.576 z" fill="rgba(84, 26, 115, 1)" transform="translate(0,0)"/>
<path d="M 1124.51 1054.91 C 1128.51 1057.89 1133.38 1064.63 1137.66 1067.67 C 1148.04 1075.04 1164.64 1082.59 1173.58 1091.1 C 1175.66 1100.52 1177.13 1110.31 1179.06 1119.85 C 1181.35 1131.13 1184.54 1143.09 1186.28 1154.33 L 1185.18 1153.55 C 1154.25 1131.25 1150.16 1110.1 1137.31 1077.09 C 1134.93 1070.97 1125.53 1061.03 1124.51 1054.91 z" fill="rgba(2, 0, 2, 1)" transform="translate(0,0)"/>
<path d="M 1565.01 1184.13 L 1565.56 1185.37 C 1559.83 1195.11 1552.54 1215.44 1546.16 1221.49 C 1537.05 1230.11 1507.28 1238.8 1494.78 1243.7 L 1493.94 1242.54 C 1499.89 1228.51 1503.41 1219.72 1508.62 1205.05 C 1528.34 1196.68 1545.03 1194.68 1565.01 1184.13 z" fill="rgba(2, 0, 2, 1)" transform="translate(0,0)"/>
<path d="M 1344.16 1265.74 C 1369.18 1266.7 1382.85 1269.72 1410.26 1268.3 C 1407.32 1275.09 1404.42 1281.91 1401.58 1288.75 L 1397.92 1297.43 C 1380.98 1297 1364.06 1295.92 1347.2 1294.19 C 1347.15 1285.42 1345.36 1274.6 1344.16 1265.74 z" fill="rgba(85, 44, 85, 1)" transform="translate(0,0)"/>
<path d="M 1661.9 954.812 C 1662.57 952.161 1662.43 951.349 1665.74 949.754 C 1673.9 945.813 1680.8 943.92 1688.35 938.688 L 1689.73 937.749 C 1687.61 950.66 1685.96 985.11 1683.56 992.512 C 1680.14 996.975 1662.38 1008.69 1656.21 1013.48 C 1660.51 992.771 1658.79 973.44 1661.9 954.812 z M 1662.08 981.276 C 1661.47 986.14 1659.33 999.193 1661.72 1003.03 C 1664.87 1004.13 1663.24 1004.04 1666.8 1002.71 C 1671.55 997.468 1667.39 985.934 1674.04 983.133 C 1679.63 986.112 1673.94 989.196 1682.37 992.461 C 1686.2 980.43 1676.9 976.746 1676.51 961.426 C 1678.28 956.109 1685.08 957.219 1686.33 950.42 C 1685.38 947.985 1685.34 948.185 1683.15 946.674 C 1676.03 946.221 1669.81 949.994 1663.29 953.067 C 1662.4 962.404 1663.32 971.502 1662.08 981.276 z" fill="rgba(41, 35, 50, 1)" transform="translate(0,0)"/>
<path d="M 1661.9 954.812 C 1661.93 963.488 1660.99 972.953 1662.08 981.276 C 1661.47 986.14 1659.33 999.193 1661.72 1003.03 C 1664.87 1004.13 1663.24 1004.04 1666.8 1002.71 C 1671.55 997.468 1667.39 985.934 1674.04 983.133 C 1679.63 986.112 1673.94 989.196 1682.37 992.461 L 1683.56 992.512 C 1680.14 996.975 1662.38 1008.69 1656.21 1013.48 C 1660.51 992.771 1658.79 973.44 1661.9 954.812 z" fill="rgba(41, 35, 50, 1)" transform="translate(0,0)"/>
<path d="M 1477.02 1257.23 L 1479.8 1257.19 C 1479.5 1261.08 1476.94 1262.72 1475.14 1265.92 C 1460.34 1292.22 1439.42 1289.85 1411.96 1294.71 L 1409.18 1294.64 C 1408.86 1289.66 1416.56 1273.72 1418.97 1268.21 C 1438.32 1263.96 1457.29 1262.09 1477.02 1257.23 z" fill="rgba(85, 44, 85, 1)" transform="translate(0,0)"/>
<path d="M 1250.28 576.709 C 1277 583.783 1300.06 581.511 1326.56 585.846 C 1332.86 591.971 1336.01 597.901 1340.6 605.289 C 1317.42 601.851 1284.31 602.007 1262.91 597.367 C 1258.9 591.894 1253.86 582.774 1250.28 576.709 z M 1332.24 602.734 C 1332.37 595.907 1332.5 595.104 1327.92 590.412 C 1327.16 589.636 1326.38 588.871 1325.6 588.118 C 1314.33 586.96 1308.21 585.485 1296.71 586.204 C 1303.28 597.761 1319.5 603.162 1332.24 602.734 z" fill="rgba(41, 35, 50, 1)" transform="translate(0,0)"/>
<path d="M 1572.14 1183.2 C 1586.95 1173.24 1603.83 1163.61 1619.3 1154.48 C 1609.93 1179.18 1605.72 1191.67 1581.88 1206.59 C 1576.75 1209.81 1566.44 1215.63 1562.09 1219.02 L 1556.41 1219.9 C 1562.9 1207.54 1566.79 1196 1572.14 1183.2 z" fill="rgba(2, 0, 2, 1)" transform="translate(0,0)"/>
<path d="M 1166.87 573.792 C 1188.56 576.257 1221.08 577.157 1243.48 578.399 C 1248.27 584.076 1251.76 590.715 1255.14 597.266 C 1227.58 592.768 1203.36 591.898 1175.4 590.742 C 1171.41 584.575 1169.8 580.585 1166.87 573.792 z" fill="url(#Gradient10)" transform="translate(0,0)"/>
<path d="M 1655.37 1021.68 C 1660.66 1016.78 1678.43 1005.91 1686.53 999.641 C 1684.3 1005.89 1682.19 1012.74 1680.11 1019.08 C 1676.35 1031.96 1675.19 1039.55 1673.33 1052.79 C 1668.63 1057.05 1663.92 1061.53 1658.82 1065.27 C 1654.37 1069.23 1649.61 1073.93 1645.23 1078.06 C 1650.38 1056.85 1651.97 1042.75 1655.37 1021.68 z M 1656.43 1049.22 C 1670.58 1041.36 1655.79 1020.85 1679.18 1019.15 C 1678.93 1014.44 1679.78 1014.69 1677.28 1012.38 C 1670.52 1011.4 1662.58 1018.16 1657.56 1022.4 C 1656.35 1029.13 1652.46 1043.93 1656.43 1049.22 z" fill="rgba(41, 35, 50, 1)" transform="translate(0,0)"/>
<path d="M 1655.37 1021.68 C 1660.66 1016.78 1678.43 1005.91 1686.53 999.641 C 1684.3 1005.89 1682.19 1012.74 1680.11 1019.08 L 1679.18 1019.15 C 1678.93 1014.44 1679.78 1014.69 1677.28 1012.38 C 1670.52 1011.4 1662.58 1018.16 1657.56 1022.4 C 1656.35 1029.13 1652.46 1043.93 1656.43 1049.22 C 1656.16 1058.67 1657.97 1058.06 1658.82 1065.27 C 1654.37 1069.23 1649.61 1073.93 1645.23 1078.06 C 1650.38 1056.85 1651.97 1042.75 1655.37 1021.68 z" fill="rgba(41, 35, 50, 1)" transform="translate(0,0)"/>
<path d="M 1278.71 1247.73 C 1296.19 1255.26 1318.72 1260 1337.61 1265.27 C 1337.94 1274.67 1338.65 1284.06 1339.72 1293.41 C 1329.9 1286.51 1317.63 1283.33 1306.22 1281.18 C 1294.14 1278.91 1284.87 1258.42 1278.71 1247.73 z" fill="rgba(85, 44, 85, 1)" transform="translate(0,0)"/>
<path d="M 1489.68 1253.95 C 1503.81 1246.12 1526.26 1242.86 1543.85 1232.6 L 1544.93 1234.16 C 1540.42 1238.93 1534.82 1250.95 1531.63 1253.4 C 1510.13 1269.94 1490.49 1270.45 1467.41 1288.52 C 1475.75 1277.67 1482.29 1265.59 1489.68 1253.95 z" fill="rgba(85, 44, 85, 1)" transform="translate(0,0)"/>
<path d="M 1412.65 591.976 C 1434.59 599.338 1452.45 601.081 1474.96 605.132 C 1487.78 607.438 1494.9 617.842 1500.96 628.428 C 1489.58 620.101 1448.22 617.262 1432.04 614.541 C 1425.46 608.788 1420.73 599.429 1412.65 591.976 z M 1490.68 621.149 C 1490.3 618.214 1490.42 615.021 1487.88 613.118 C 1478.32 605.976 1435.4 599.846 1424.72 599.939 C 1428.64 621.617 1472.37 615.344 1490.68 621.149 z" fill="rgba(41, 35, 50, 1)" transform="translate(0,0)"/>
<path d="M 1092.43 571.983 L 1159.36 573.063 C 1163.96 579.703 1165.62 582.992 1169.16 590.34 C 1145.75 587.641 1121.34 587.589 1097.71 586.999 C 1095.99 580.197 1095.45 578.322 1092.43 571.983 z" fill="rgba(81, 7, 60, 1)" transform="translate(0,0)"/>
<path d="M 1671.55 1063.85 L 1672.48 1065.57 C 1660.46 1103.99 1666.54 1101.2 1635.09 1131.53 L 1634.27 1130.04 C 1637.77 1117.54 1637.54 1100.3 1644.98 1089.67 C 1651 1081.05 1663.44 1071.12 1671.55 1063.85 z" fill="rgba(2, 0, 2, 1)" transform="translate(0,0)"/>
<path d="M 1427.65 870.122 C 1435.1 869.388 1461.55 867.463 1466.83 871.533 C 1464.44 875.281 1465.31 901.594 1465.19 907.933 C 1464.8 928.908 1463.21 950.169 1463.24 971.099 C 1460.86 971.663 1455.66 972.265 1453.34 971.397 C 1456.98 966.616 1456.96 882.475 1456.95 871.871 C 1448.1 871.759 1436.24 871.19 1427.65 870.122 z" fill="rgba(185, 106, 193, 1)" transform="translate(0,0)"/>
<path d="M 1208.54 1212.68 C 1211.15 1213.03 1222.27 1220.97 1225.6 1223.06 C 1239.91 1232.05 1254.84 1238.33 1269.69 1246.08 C 1274.31 1253.53 1277.17 1263.51 1282.55 1272.33 C 1262.44 1263.8 1219.07 1232.14 1208.54 1212.68 z" fill="rgba(81, 7, 60, 1)" transform="translate(0,0)"/>
<path d="M 1669.68 1105.71 L 1670.23 1107.45 C 1670.05 1107.71 1669.87 1107.98 1669.69 1108.25 C 1657.83 1134.73 1640.84 1156.37 1622.94 1178.85 C 1617.24 1186.01 1609.5 1205.44 1600.49 1209.42 C 1602.58 1202.11 1607.89 1197.03 1611.83 1190.38 C 1618.71 1178.76 1621.92 1166.64 1624.4 1153.51 L 1636.72 1141.16 C 1640.46 1136.87 1643.69 1133.99 1647.85 1130.18 C 1656.85 1122.52 1662.12 1114.6 1669.68 1105.71 z" fill="rgba(41, 35, 50, 1)" transform="translate(0,0)"/>
<path d="M 1647.85 1130.18 C 1649.19 1135.65 1648.35 1142.88 1643.53 1146.4 L 1641.28 1146.45 C 1639.39 1143.78 1639.28 1143.12 1636.72 1141.16 C 1640.46 1136.87 1643.69 1133.99 1647.85 1130.18 z" fill="rgba(85, 44, 85, 1)" transform="translate(0,0)"/>
<path d="M 1515.61 774.12 C 1523.02 773.263 1532.47 773.394 1539.94 773.933 L 1543.23 775.512 C 1543.4 785.332 1545.04 862.609 1546.78 865.499 C 1542.73 867.127 1533.49 866.489 1529.29 865.087 C 1532.33 864.945 1534.19 865.135 1536.9 863.723 C 1539.07 855.924 1534.59 786.374 1534.21 775.372 C 1527.88 775.325 1521.75 775.593 1515.61 774.12 z" fill="rgba(185, 106, 193, 1)" transform="translate(0,0)"/>
<path d="M 1537.69 872.037 C 1541.02 870.126 1552.58 871.52 1557.03 872.131 C 1553.79 872.411 1549.34 872.4 1546.79 874.031 C 1545.89 884.46 1546.41 895.516 1546.01 906.066 C 1545.24 926.321 1544.43 946.36 1544.32 966.646 L 1537.18 968.565 C 1534.1 969.394 1532.51 969.814 1529.34 968.78 C 1531.24 968.409 1533.14 968.075 1535.05 967.779 C 1537.08 962.824 1538.13 880.857 1537.69 872.037 z" fill="rgba(185, 106, 193, 1)" transform="translate(0,0)"/>
<path d="M 1443.49 769.089 C 1451.72 768.112 1457.37 768.81 1465.57 770.275 L 1466.17 771.054 L 1464.15 771.891 C 1462.4 777.301 1465.62 850.642 1465.59 863.513 C 1460.05 863.49 1448.74 866.278 1444.31 863.283 C 1447.56 863.003 1453.59 863.217 1457.06 863.229 C 1456.94 830.79 1456.51 802.894 1454.81 770.523 L 1443.49 769.089 z" fill="rgba(185, 106, 193, 1)" transform="translate(0,0)"/>
<path d="M 1539.94 773.933 L 1540.19 773.315 C 1539.65 770.195 1538.96 769.329 1540.98 767.004 C 1548.9 768.916 1580.38 768.676 1590.61 769.248 C 1596.92 773.325 1604.45 772.136 1611.24 769.856 C 1617.54 769.66 1637.23 769.32 1643.39 770.121 C 1646.51 772.301 1647.57 772.59 1651.28 773.561 L 1651.61 774.38 C 1649.14 775.492 1646.02 776.771 1643.71 778.051 C 1633.96 778.33 1618.23 778.957 1608.92 777.137 C 1606.06 776.045 1603.48 776.651 1600.36 776.951 C 1591.12 778.015 1557.52 775.141 1543.23 775.512 L 1539.94 773.933 z" fill="rgba(185, 106, 193, 1)" transform="translate(0,0)"/>
<path d="M 1041.17 571.571 C 1054.82 570.246 1073.79 571.225 1087.61 571.919 L 1090.62 585.25 L 1077.19 584.816 C 1061.16 583.777 1043.68 583.906 1027.51 583.739 L 1028.56 572.016 L 1041.17 571.571 z" fill="url(#Gradient9)" transform="translate(0,0)"/>
<path d="M 1702.47 858.793 C 1704.12 854.872 1708.63 856.671 1715.45 852.136 C 1713.1 859.08 1713.4 902.386 1711.64 915.791 C 1706.32 920.97 1704.43 922.528 1697.79 926.476 C 1702.32 906.027 1701.9 880.182 1702.47 858.793 z M 1707.83 917.654 C 1711.6 911.166 1713.76 861.826 1710.4 857.243 L 1707.88 856.289 C 1707.16 857.013 1706.44 857.736 1705.73 858.459 C 1704.32 871.979 1703 887.883 1702.97 901.332 C 1702.95 906.751 1703.1 913.036 1704.64 916.015 L 1707.83 917.654 z" fill="rgba(41, 35, 50, 1)" transform="translate(0,0)"/>
<path d="M 1452.78 979.23 C 1455.51 980.324 1455.93 980.204 1458.83 979.751 C 1459.69 981.99 1459.76 982.682 1462.03 983.837 C 1461.96 992.291 1456.87 1056 1455.48 1060.94 L 1457.81 1061.47 C 1455.98 1062.67 1445.17 1063.5 1443 1063.07 C 1448.79 1061.19 1447.52 1061.05 1448.06 1055.06 C 1449.73 1030.13 1453.38 1004 1452.78 979.23 z" fill="rgba(185, 106, 193, 1)" transform="translate(0,0)"/>
<path d="M 1448.06 1055.06 C 1453.97 1055.65 1453.9 1054.53 1455.48 1060.94 L 1457.81 1061.47 C 1455.98 1062.67 1445.17 1063.5 1443 1063.07 C 1448.79 1061.19 1447.52 1061.05 1448.06 1055.06 z" fill="rgba(207, 117, 209, 1)" transform="translate(0,0)"/>
<path d="M 1697.1 989.13 C 1700.35 986.879 1700.52 986.608 1704.31 985.991 L 1703.56 989.676 C 1705.54 999.389 1699.11 1036.56 1694.32 1044.53 C 1691.63 1045.54 1691.66 1046 1689.74 1048.27 C 1686.82 1048.51 1686.05 1049.29 1682.53 1049.18 L 1681.82 1047.96 L 1683.07 1046.67 C 1680.48 1040.87 1693.89 1004.12 1693.9 994.924 C 1693.9 993.737 1696.21 990.33 1697.1 989.13 z" fill="rgba(41, 35, 50, 1)" transform="translate(0,0)"/>
<path d="M 1703.56 989.676 C 1705.54 999.389 1699.11 1036.56 1694.32 1044.53 C 1691.63 1045.54 1691.66 1046 1689.74 1048.27 C 1686.82 1048.51 1686.05 1049.29 1682.53 1049.18 L 1681.82 1047.96 L 1683.07 1046.67 C 1692.93 1034.81 1700.01 1005.48 1703.56 989.676 z" fill="url(#Gradient8)" transform="translate(0,0)"/>
<path d="M 1556.47 616.551 C 1562.7 617.861 1569.05 620.109 1575.62 621.373 C 1599.2 625.911 1605.58 627.037 1617.29 648.426 C 1603.16 643.331 1591.71 642.003 1577.37 638.526 C 1569.61 631.205 1565.27 623.409 1556.47 616.551 z M 1610.26 643.503 C 1609.45 626.519 1584.58 625.518 1571.25 624.095 C 1571.78 641.12 1593.97 638.092 1605.14 642.598 C 1606.9 643.308 1608.41 643.397 1610.26 643.503 z" fill="rgba(41, 35, 50, 1)" transform="translate(0,0)"/>
<path d="M 1405.63 1070.11 C 1415.44 1068.82 1431.86 1069.99 1442.34 1069.49 C 1446.57 1069.29 1456.29 1068.74 1459.79 1068.97 C 1458.47 1069.37 1455.3 1070 1455.04 1070.89 C 1450.05 1087.69 1449.58 1125.45 1445.34 1140.65 C 1441.3 1140.19 1441.08 1140.46 1437.25 1142.29 C 1438.51 1122.44 1443.35 1091.95 1445.9 1071.37 C 1436.34 1071.45 1414.03 1072.03 1405.63 1070.11 z" fill="rgba(185, 106, 193, 1)" transform="translate(0,0)"/>
<path d="M 1689.4 715.709 L 1703.69 718.748 C 1706.35 732.047 1708.35 759.076 1712.13 770.615 L 1697.89 770.151 C 1696.82 748.079 1695.39 736.597 1689.4 715.709 z M 1707.49 768.966 C 1708.32 762.932 1708.49 759.089 1705.72 753.701 C 1702.67 751.344 1704.37 752.138 1700.3 751.555 C 1698.87 756.746 1696.73 764.635 1701.38 768.618 C 1703.62 768.82 1705.24 768.948 1707.49 768.966 z" fill="rgba(41, 35, 50, 1)" transform="translate(0,0)"/>
<path d="M 1698.07 934.572 C 1703.41 930.8 1708.47 926.632 1713.58 922.546 C 1708.5 935.303 1706.89 952.808 1705.16 966.569 C 1705.16 971.869 1705.9 981.872 1704.31 985.991 C 1700.52 986.608 1700.35 986.879 1697.1 989.13 C 1696.07 987.597 1695.72 987.541 1694.28 986.301 C 1692.86 982.448 1697.71 942.857 1698.07 934.572 z M 1702.93 969.601 C 1703.2 961.71 1707.61 940.388 1706.84 935.472 C 1704.2 934.255 1703.38 934.535 1700.46 934.576 C 1699.37 938.346 1696.8 965.864 1698.06 968.258 C 1700.12 968.976 1700.79 969.234 1702.93 969.601 z" fill="rgba(41, 35, 50, 1)" transform="translate(0,0)"/>
<path d="M 1694.28 986.301 C 1701.87 982.461 1702.89 974.203 1705.16 966.569 C 1705.16 971.869 1705.9 981.872 1704.31 985.991 C 1700.52 986.608 1700.35 986.879 1697.1 989.13 C 1696.07 987.597 1695.72 987.541 1694.28 986.301 z" fill="rgba(84, 26, 115, 1)" transform="translate(0,0)"/>
<path d="M 1547.65 1242.49 C 1554.41 1229.4 1582.64 1214.24 1596.79 1204.23 C 1593.21 1209.07 1588.86 1213.59 1584.8 1218.06 C 1574.57 1238.19 1560.37 1246.6 1540.69 1257.38 C 1542.21 1253.51 1545 1245.04 1547.65 1242.49 z" fill="rgba(84, 26, 115, 1)" transform="translate(0,0)"/>
<path d="M 1547.65 1242.49 C 1554.41 1229.4 1582.64 1214.24 1596.79 1204.23 C 1593.21 1209.07 1588.86 1213.59 1584.8 1218.06 C 1580.43 1221.58 1551.34 1242.53 1547.65 1242.49 z" fill="rgba(41, 35, 50, 1)" transform="translate(0,0)"/>
<path d="M 1160.04 1138.84 C 1165.12 1140.75 1180.48 1158.49 1187.85 1164.43 C 1194.08 1186.43 1197.45 1193.57 1208.23 1213.97 C 1195.01 1204.39 1176.17 1168.68 1168.42 1153.89 C 1165.87 1149.02 1161.94 1143.83 1160.04 1138.84 z" fill="rgba(84, 26, 115, 1)" transform="translate(0,0)"/>
<path d="M 1630.89 655.46 C 1639.29 658.893 1649.6 661.953 1658.39 665.179 L 1657.28 665.094 C 1649.9 664.482 1642.77 661.149 1638.49 664.64 C 1638.33 668.064 1638.01 666.41 1639.95 669.653 C 1644.74 672.848 1649.36 669.506 1654.28 672.617 C 1654.6 675.754 1655.09 674.476 1653.37 676.727 C 1648.8 677.031 1649.03 676.275 1646.02 678.563 C 1644.38 683.715 1647 689.378 1648.69 694.72 C 1657.3 701.934 1660.15 698.744 1670.39 701.721 L 1672.43 700.815 C 1672.66 694.82 1662.57 669.601 1658.39 665.179 C 1665.53 667.4 1675.36 697.586 1678.56 705.828 C 1668.82 703.453 1659.03 701.271 1649.2 699.286 C 1646.93 697.791 1633.43 661.258 1630.89 655.46 z" fill="rgba(41, 35, 50, 1)" transform="translate(0,0)"/>
<path d="M 1495.74 605.556 C 1508.74 610.126 1539.53 614.574 1547.84 620.143 C 1539.08 618.385 1511.81 610.805 1505.71 612.727 C 1503.99 615.075 1504.5 613.708 1505.02 617.244 C 1511.25 625.389 1542.74 633.484 1551.49 629.366 C 1553.88 625.071 1551.65 623.759 1548.49 620.574 C 1555.11 623.41 1562.49 632.946 1566.62 638.836 C 1550.37 631.527 1525.96 630.615 1508.3 624.858 C 1504.49 620.367 1499.77 611.324 1495.74 605.556 z" fill="rgba(41, 35, 50, 1)" transform="translate(0,0)"/>
<path d="M 1676.15 676.17 C 1675.29 674.393 1674.51 672.351 1673.74 670.509 L 1675.57 667.7 C 1669.76 660.615 1663.16 653.509 1658.51 645.67 C 1670.14 655.795 1680.63 664.845 1686.91 679.609 C 1683.34 676.682 1684.35 676.576 1680.6 676.325 C 1677.99 681.052 1685.71 694.494 1688.15 699.431 C 1690.48 703.443 1688.87 701.956 1693.36 703.838 L 1694.73 702.95 C 1696.3 693.949 1688.85 687.665 1686.91 679.609 C 1692.76 685.083 1699.38 703.498 1702.45 711.156 C 1683.1 706.898 1682.95 693.44 1676.15 676.17 z" fill="rgba(41, 35, 50, 1)" transform="translate(0,0)"/>
<path d="M 1615.58 628.706 C 1635.05 634.761 1647.47 639.433 1658.06 657.159 C 1648.04 653.097 1637.6 648.359 1627.66 644.013 C 1623.79 638.387 1620.66 633.291 1615.58 628.706 z M 1642.19 647.829 C 1641.71 637.676 1637.19 638.152 1628.4 635.862 C 1628.6 645.728 1633.71 645.345 1642.19 647.829 z" fill="rgba(41, 35, 50, 1)" transform="translate(0,0)"/>
<path d="M 1689.74 1048.27 C 1691.66 1046 1691.63 1045.54 1694.32 1044.53 C 1691.25 1051.94 1678.06 1087.98 1673.99 1090.43 C 1674.31 1085.71 1677.82 1078.59 1678.69 1073.16 C 1680.38 1062.64 1682.88 1056.59 1689.74 1048.27 z" fill="rgba(41, 35, 50, 1)" transform="translate(0,0)"/>
<path d="M 1556.41 1219.9 L 1562.09 1219.02 C 1556.96 1223.62 1550.22 1230.02 1544.93 1234.16 L 1543.85 1232.6 C 1547.76 1229.32 1553.12 1223.78 1556.41 1219.9 z" fill="rgba(81, 7, 60, 1)" transform="translate(0,0)"/>
<path d="M 1669.68 1105.71 C 1671.64 1102.82 1675.23 1098.04 1678.74 1097.4 L 1677.75 1100.01 L 1678.43 1097.28 C 1678.47 1100.72 1672.83 1105.07 1670.23 1107.45 L 1669.68 1105.71 z" fill="rgba(84, 26, 115, 1)" transform="translate(0,0)"/>
<path d="M 1360.74 417.789 C 1340.35 407.137 1313.98 384.547 1294.29 369.785 C 1245.1 332.744 1196.23 295.293 1147.67 257.437 C 1126.72 240.803 1092.1 210.932 1068.98 200.245 C 1048.82 190.923 1025.16 188.048 1004.14 195.973 C 978.737 205.556 918.362 257.007 893.403 276.209 L 756.379 380.788 C 702.493 421.21 648.885 462.002 595.559 503.16 C 573.971 520.012 552.715 535.85 531.81 553.704 C 505.187 576.443 502.202 607.741 501.182 640.517 C 499.629 690.396 501.834 739.776 501.75 789.538 C 501.74 796.919 500.969 804.515 500.925 812.001 L 500.917 991.999 C 501.045 1014.57 504.273 1043.36 502.453 1065.12 C 495.346 1150.12 524.672 1137.59 590.152 1137.66 L 763.573 1137.73 C 793.822 1137.71 824.117 1137.4 854.349 1138.09 C 887.579 1138.86 915.692 1158.73 927.277 1189.84 C 934.815 1210.28 933.87 1232.89 924.653 1252.63 C 909.868 1284.12 879.757 1298.03 846.101 1298.97 C 820.503 1299.68 794.81 1299.36 769.191 1299.36 L 620.12 1299.33 L 506.55 1299.54 C 487.103 1299.58 459.535 1300.46 441.055 1298.74 C 426.208 1297.31 411.744 1293.2 398.367 1286.6 C 362.989 1269.16 339.638 1232.46 339.039 1192.95 C 338.412 1151.68 338.813 1110.33 338.822 1069.04 L 338.814 830.041 C 338.809 786.485 338.888 742.863 338.754 699.291 C 338.56 636.621 328.055 570.215 354.816 511.382 C 381.475 452.776 428.951 427.818 477.238 390.063 C 542.592 338.093 608.715 287.098 675.585 237.093 C 739.319 188.776 801.711 137.787 865.596 89.8343 C 923.678 48.2674 971.905 -10.3054 1050.75 3.89752 C 1095.12 11.8902 1115.62 30.3415 1150.28 57.0034 C 1167.47 70.225 1184.39 84.0997 1201.39 97.5628 L 1303.72 177.69 C 1313.6 185.446 1348.85 213.671 1357.44 218.09 C 1361.02 214.552 1358.05 127.987 1359.9 113.711 C 1361.49 87.2866 1360.8 56.3679 1360.96 29.4846 C 1371.26 18.351 1376.62 18.5352 1390.96 18.6181 L 1467.58 18.638 C 1482.02 18.5925 1497.43 17.9474 1511.78 19.4387 C 1520.17 20.3095 1525.63 27.166 1528.15 34.8373 C 1530.07 44.3696 1529.09 99.4255 1529.05 113.584 L 1529.04 265.238 C 1529 307.344 1526.96 360.305 1535.07 401.326 C 1533.63 405.109 1533.63 405.451 1530.94 408.341 L 1529.45 408.774 C 1528.02 407.305 1528.33 408.014 1527.97 406.982 C 1528.6 406.079 1529.55 404.565 1529.42 403.092 C 1527.91 385.49 1525.84 367.724 1524.38 350.065 C 1524.24 348.356 1521.41 345.153 1520.45 344.046 C 1499.91 329.511 1479.55 314.722 1459.37 299.681 C 1456 298.614 1453.36 297.158 1450.31 297.841 C 1449.86 304.45 1451.74 374.086 1452.98 376.784 L 1450.61 377.729 C 1449.1 382.276 1452.04 384.989 1454.24 388.857 C 1457.66 398.614 1467.91 442.5 1469.96 446.09 L 1468.58 446.647 C 1464.53 445.825 1458.87 443.552 1455.04 441.919 C 1457.93 440.592 1456.77 441.544 1458.64 438.936 C 1459.86 428.791 1448.35 395.741 1445.29 383.887 C 1430.57 373.615 1411.42 368.855 1394.81 361.81 C 1388.93 359.316 1366.73 349.365 1362.76 351.71 C 1361.09 359.905 1362.9 398.222 1362.03 410.422 L 1361.95 411.447 L 1360.88 411.455 L 1360.74 417.789 z M 1446.16 374.819 C 1442.55 352.986 1447.22 296.989 1438.67 284.841 C 1437.37 284.267 1424.68 274.457 1422.32 272.674 L 1381.16 241.748 C 1374.25 238.247 1369.13 234.07 1362.67 230.739 C 1360.51 264.949 1362.84 309.174 1362.17 344.53 C 1377.47 345.351 1428.9 368.021 1446.16 374.819 z" fill="url(#Gradient7)" transform="translate(0,0)"/>
<path d="M 1360.96 29.4846 C 1371.26 18.351 1376.62 18.5352 1390.96 18.6181 C 1394.27 21.2445 1401.45 23.1166 1401.85 23.5813 C 1406.94 29.3801 1407.53 39.9825 1411.7 46.6137 C 1421.37 60.971 1431.89 58.6977 1434.72 78.5193 C 1438.02 101.719 1422.83 110.62 1408.27 124.707 C 1402.74 130.058 1396.02 130.361 1388.53 132.174 C 1384.85 131.401 1383.39 130.08 1380.29 127.994 C 1371.19 126.602 1365.35 139.533 1361.06 144.746 L 1360.9 150.039 C 1359.02 144.767 1361.33 122.995 1359.9 113.711 C 1361.49 87.2866 1360.8 56.3679 1360.96 29.4846 z" fill="rgba(207, 117, 209, 1)" transform="translate(0,0)"/>
<path d="M 1360.52 225.157 C 1367.12 231.192 1375.05 235.217 1381.16 241.748 C 1374.25 238.247 1369.13 234.07 1362.67 230.739 C 1360.51 264.949 1362.84 309.174 1362.17 344.53 C 1377.47 345.351 1428.9 368.021 1446.16 374.819 C 1442.55 352.986 1447.22 296.989 1438.67 284.841 C 1442.54 287.496 1456.45 296.686 1459.37 299.681 C 1456 298.614 1453.36 297.158 1450.31 297.841 C 1449.86 304.45 1451.74 374.086 1452.98 376.784 L 1450.61 377.729 C 1449.1 382.276 1452.04 384.989 1454.24 388.857 C 1457.66 398.614 1467.91 442.5 1469.96 446.09 L 1468.58 446.647 C 1464.53 445.825 1458.87 443.552 1455.04 441.919 C 1457.93 440.592 1456.77 441.544 1458.64 438.936 C 1459.86 428.791 1448.35 395.741 1445.29 383.887 C 1430.57 373.615 1411.42 368.855 1394.81 361.81 C 1388.93 359.316 1366.73 349.365 1362.76 351.71 C 1361.09 359.905 1362.9 398.222 1362.03 410.422 L 1361.95 411.447 L 1360.88 411.455 C 1360.03 394.198 1360.83 371.452 1360.75 353.722 L 1360.52 225.157 z" fill="url(#Gradient6)" transform="translate(0,0)"/>
<path d="M 1528.15 34.8373 C 1530.07 44.3696 1529.09 99.4255 1529.05 113.584 L 1529.04 265.238 C 1529 307.344 1526.96 360.305 1535.07 401.326 C 1533.63 405.109 1533.63 405.451 1530.94 408.341 L 1529.45 408.774 C 1528.02 407.305 1528.33 408.014 1527.97 406.982 C 1528.6 406.079 1529.55 404.565 1529.42 403.092 C 1527.91 385.49 1525.84 367.724 1524.38 350.065 C 1524.24 348.356 1521.41 345.153 1520.45 344.046 C 1523.12 345.445 1523.64 345.685 1526.51 346.6 L 1527.51 345.911 C 1529.2 324.941 1527.97 284.843 1527.97 262.776 L 1527.89 115.189 C 1527.88 89.5476 1527.22 60.2488 1528.15 34.8373 z" fill="rgba(81, 7, 60, 1)" transform="translate(0,0)"/>
<path d="M 1549.06 1600.06 C 1565.11 1599.23 1575.91 1599.22 1584.52 1615.02 C 1587.39 1620.28 1587.33 1624.87 1587.4 1630.78 C 1587.71 1658.53 1587.57 1686.3 1587.57 1714.06 L 1587.56 1872.8 L 1587.61 1944.58 C 1587.62 1969.06 1593.15 1984.54 1569.84 1998.84 C 1557.74 2003.11 1542.59 1998.22 1535.23 1987.69 C 1532.42 1983.66 1531.42 1969.4 1531.36 1964.37 C 1531.07 1937.27 1531.18 1910.13 1531.18 1883.02 L 1531.11 1723.64 L 1531.02 1650.55 C 1531.01 1640.16 1530.6 1625.31 1531.83 1615.03 C 1532.61 1608.51 1543.46 1603.19 1549.06 1600.06 z" fill="rgba(207, 120, 197, 1)" transform="translate(0,0)"/>
<path d="M 1152.12 1600.19 C 1179.82 1599.05 1435.34 1598.39 1447.35 1603.6 C 1454.17 1606.56 1459.19 1612.4 1461.74 1619.31 C 1464.66 1627.27 1463.78 1634.9 1460.05 1642.44 C 1455.96 1650.7 1449.77 1654.45 1441.46 1657.41 C 1433.52 1658.54 1418.12 1658.07 1409.53 1658.07 L 1351.86 1658.1 C 1290.86 1658.13 1229.71 1658.17 1168.73 1658.07 C 1157.38 1658.05 1143.88 1657.15 1136.22 1648.19 C 1127.96 1638.54 1129.48 1628.13 1129.98 1616.46 C 1137.32 1605.58 1139.75 1604.22 1152.12 1600.19 z" fill="rgba(207, 117, 209, 1)" transform="translate(0,0)"/>
<path d="M 1290.06 1731.43 C 1295.58 1731.18 1301.73 1730.78 1307.14 1731.95 C 1313.67 1733.35 1320.82 1737.3 1324.1 1743.38 C 1326.07 1747.01 1325.88 1754.93 1326 1759.03 C 1326.68 1782.68 1327.59 1974.62 1324.6 1982.89 C 1321.71 1990.86 1312.69 1996.87 1305.32 2000.17 L 1292.97 2000.25 C 1282.44 1994.34 1279.63 1992.87 1272 1983.66 C 1268.22 1912.27 1274.9 1837.63 1270.16 1765.97 C 1269.01 1748.58 1271.73 1736.22 1290.06 1731.43 z" fill="rgba(207, 120, 197, 1)" transform="translate(0,0)"/>
<path d="M 1360.88 411.455 L 1361.95 411.447 C 1364.77 417.85 1383.23 420.987 1390.5 423.336 C 1411.45 430.101 1434.43 434.32 1455.04 441.919 C 1458.87 443.552 1464.53 445.825 1468.58 446.647 L 1469.96 446.09 C 1494.53 453.818 1524.4 461.663 1548.06 469.817 C 1552.69 472.038 1553.99 472.87 1558.91 473.88 L 1573.65 481.927 C 1578.75 484.09 1584.45 486.657 1589.61 488.285 C 1603.61 492.708 1615.59 500.239 1627.79 508.216 C 1629.4 509.266 1632.16 508.855 1634 508.668 L 1635.27 508.56 C 1636.07 506.722 1636.85 504.879 1637.63 503.029 C 1641.22 510.377 1648.39 518.166 1653.07 525.102 C 1662.35 538.866 1673.1 552.937 1682.08 566.781 C 1669.68 563.689 1649.7 556.847 1636.19 553.091 C 1602.87 543.793 1569.26 535.498 1535.44 528.216 C 1522.25 525.279 1498.31 519.537 1485.94 518.625 C 1481.18 508.316 1469.61 464.59 1466.89 452.71 C 1451.45 443.302 1408.38 434.363 1389.65 428.299 C 1380.55 425.352 1369.2 423.392 1360.74 417.789 L 1360.88 411.455 z M 1491.44 514.438 C 1512.18 518.149 1532.83 522.334 1553.37 526.989 C 1563.26 529.202 1576.12 532.879 1585.69 534.389 C 1583.64 524.915 1572.92 502.483 1568.65 491.025 C 1559.24 475.431 1503.74 465.289 1486.06 458.691 C 1482.14 457.228 1477.44 456.79 1474.42 460.179 C 1477.4 471.178 1486.92 504.324 1491.44 514.438 z M 1619.19 510.157 C 1610.99 503.801 1590.8 492.19 1580.67 492.133 L 1579.03 493.147 C 1579.16 501.384 1591.76 528.502 1596.88 535.378 C 1598.89 538.083 1618.63 542.956 1623.84 544.834 C 1625.94 544.565 1627.94 544.233 1630.02 543.897 L 1631 542.49 C 1630.05 535.609 1622.23 517.617 1619.19 510.157 z M 1636.6 515.983 L 1633.04 516.844 C 1629.13 523.563 1639.66 542.48 1642.98 549.703 C 1647.85 550.65 1658.3 554.409 1661.38 550.583 C 1660.58 542.42 1642.61 521.463 1636.6 515.983 z" fill="rgba(84, 26, 115, 1)" transform="translate(0,0)"/>
<path d="M 1469.96 446.09 C 1494.53 453.818 1524.4 461.663 1548.06 469.817 C 1552.69 472.038 1553.99 472.87 1558.91 473.88 L 1573.65 481.927 C 1573.63 487.375 1573.77 488.044 1568.65 491.025 C 1559.24 475.431 1503.74 465.289 1486.06 458.691 C 1482.14 457.228 1477.44 456.79 1474.42 460.179 L 1472.54 455.898 C 1473.1 453.444 1473.08 453.816 1473.2 451.267 L 1468.58 446.647 L 1469.96 446.09 z" fill="url(#Gradient5)" transform="translate(0,0)"/>
<path d="M 1619.19 510.157 C 1623.61 511.478 1632.64 514.061 1636.6 515.983 L 1633.04 516.844 C 1629.13 523.563 1639.66 542.48 1642.98 549.703 L 1641.57 549.879 C 1639.84 548.737 1626.86 545.723 1623.84 544.834 C 1625.94 544.565 1627.94 544.233 1630.02 543.897 L 1631 542.49 C 1630.05 535.609 1622.23 517.617 1619.19 510.157 z" fill="rgba(2, 0, 2, 1)" transform="translate(0,0)"/>
<path d="M 1452.98 376.784 C 1467.01 384.668 1509.72 399.269 1527.97 406.982 C 1528.33 408.014 1528.02 407.305 1529.45 408.774 L 1530.94 408.341 C 1533.63 405.451 1533.63 405.109 1535.07 401.326 C 1537.28 410.408 1537.31 413.516 1546.75 417.039 L 1546.42 417.889 C 1543.25 419.665 1543.42 419.472 1541.41 422.49 C 1541.44 426.823 1556.36 467.459 1558.91 473.88 C 1553.99 472.87 1552.69 472.038 1548.06 469.817 C 1552.7 464.41 1536.42 425.976 1533.27 417.867 C 1522.21 411.05 1466.33 388.115 1454.24 388.857 C 1452.04 384.989 1449.1 382.276 1450.61 377.729 L 1452.98 376.784 z" fill="rgba(2, 0, 2, 1)" transform="translate(0,0)"/>
<path d="M 1634 508.668 C 1636.2 497.532 1621.51 472.943 1615.06 463.558 L 1614.16 462.267 L 1614.7 460.731 L 1616.82 460.698 C 1622.88 466.765 1635.88 494.715 1637.63 503.029 C 1636.85 504.879 1636.07 506.722 1635.27 508.56 L 1634 508.668 z" fill-opacity="0.980392" fill="rgba(81, 7, 60, 1)" transform="translate(0,0)"/>
<path d="M 1546.75 417.039 C 1559.02 421.009 1562.41 421.762 1572.83 429.128 L 1572.76 429.861 C 1564.19 427.501 1553.79 422.92 1546.42 417.889 L 1546.75 417.039 z" fill-opacity="0.988235" fill="rgba(81, 7, 60, 1)" transform="translate(0,0)"/>
<path d="M 31.0906 2001 C 19.6485 1994.72 8.80793 1991.17 4.44921 1977.33 C -0.606885 1961.15 11.0584 1944.54 27.3267 1941.73 C 44.6754 1938.74 62.58 1942.06 79.8923 1942.1 C 133.721 1942.22 187.589 1942.54 241.412 1941.98 C 246.651 1941.92 252.179 1940.95 257.202 1939.5 C 269.838 1935.85 280.892 1928.08 288.61 1917.43 C 297.105 1905.55 301.186 1888.92 298.644 1874.5 C 296.05 1859.67 287.602 1846.52 275.203 1837.99 C 257.283 1825.53 234.941 1826.27 213.996 1826.3 L 156.611 1826.44 C 117.458 1826.52 84.6253 1827.85 50.4496 1803.85 C -27.9283 1748.8 -5.12391 1620.57 91.2526 1602.64 C 111.025 1598.96 130.911 1599.89 151.1 1599.92 L 221.236 1600.02 L 280.438 1599.9 C 302.831 1599.86 338.408 1594.81 341.279 1624.98 C 343.528 1648.63 326.526 1656.15 306.76 1657.19 C 286.86 1658.22 268.126 1658.08 248.476 1658.07 L 157.9 1657.97 C 128.022 1657.94 91.7033 1652.26 71.1615 1678.78 C 52.9165 1702.33 57.0506 1737.35 80.522 1756.15 C 86.8672 1761.27 94.2556 1764.94 102.169 1766.9 C 128.854 1773.61 207.176 1769.41 241.033 1770.09 C 378.372 1772.83 397.649 1963.42 268.721 1995.06 C 261.965 1996.71 252.155 1996.31 246.678 2001 L 31.0906 2001 z" fill="url(#Gradient4)" transform="translate(0,0)"/>
<path d="M 446.204 2001 C 425.091 1988.45 425.442 1986.41 425.734 1961.61 C 426.283 1915.01 425.684 1868.39 425.997 1821.78 C 426.108 1805.29 436.749 1798.7 452.161 1798.53 C 465.118 1798.38 478.134 1798.86 491.112 1798.84 L 593.943 1798.84 C 629.338 1798.85 668.068 1804.37 694.633 1776.33 C 708.102 1762.11 715.211 1743.02 714.331 1723.44 C 712.97 1690.9 687.665 1663.87 655.6 1659.74 C 634.781 1657.06 613.239 1657.99 592.212 1658 L 484.679 1658.1 C 472.574 1658.13 448.302 1659.79 437.957 1655.09 C 413.535 1643.97 417.228 1600.34 447.745 1600.12 C 507.958 1599.67 568.561 1600.27 628.801 1600.29 C 669.256 1600.31 706.672 1607.7 735.346 1638.49 C 785.025 1692.72 784.794 1773.12 729.908 1823.8 C 688.802 1861.75 639.533 1856.27 588.07 1856.9 C 553.092 1857.32 515.454 1855.41 480.71 1857.33 C 479.635 1898.14 481.413 1939.12 480.14 1979.89 C 479.862 1988.81 468.985 1996.65 462.329 2001 L 446.204 2001 z" fill="url(#Gradient3)" transform="translate(0,0)"/>
<path d="M 961.763 1873.26 C 983.305 1868.26 1004.8 1881.73 1009.7 1903.29 C 1014.6 1924.86 1001.04 1946.3 979.453 1951.1 C 958.002 1955.88 936.726 1942.42 931.856 1920.99 C 926.986 1899.56 940.354 1878.22 961.763 1873.26 z" fill="rgba(207, 120, 197, 1)" transform="translate(0,0)"/>
<path d="M 796.972 2001 C 778.958 1994.58 767.414 1983.44 776.59 1963.48 C 788.475 1937.61 800.445 1911.81 812.441 1885.99 L 873.117 1754.95 L 911.32 1671.97 C 919.38 1654.29 927.887 1636.01 936.758 1619.06 C 944.408 1604.45 965 1591.77 980.67 1600.5 C 1004.69 1613.87 1015.96 1653.23 1027.26 1676.81 L 1080.95 1786.5 C 1109.55 1845.16 1138.81 1903.53 1165.73 1962.98 C 1173.11 1979.27 1163.11 1995.98 1147.11 2001 L 1133.66 2001 C 1112.79 1986.87 1109.77 1979.63 1099.32 1956.8 C 1065.3 1882.53 1027.57 1810.15 992.124 1736.54 C 985.166 1722.09 977.702 1706.41 969.764 1692.61 C 957.787 1706.36 954.908 1720.07 947.576 1735.66 C 941.575 1748.42 935.358 1761.61 929.235 1774.33 L 873.875 1889.45 C 865.492 1906.78 856.484 1924.06 848.113 1941.41 C 840.137 1957.94 829.817 1993.92 811.288 2001 L 796.972 2001 z" fill="url(#Gradient2)" transform="translate(0,0)"/>
<path d="M 1655.13 1983.59 C 1655 1981.34 1654.4 1972.06 1654.92 1970.37 C 1660.94 1950.92 1671.57 1931.2 1680.47 1913.07 C 1688.03 1897.37 1695.44 1881.59 1702.7 1865.75 L 1779.69 1700 C 1789.95 1678 1813.11 1617.36 1830.38 1605.2 C 1837.52 1600.14 1846.41 1598.19 1855.01 1599.77 C 1861.38 1600.9 1871.75 1606.41 1874.75 1611.33 C 1886.01 1629.8 1895.68 1653.55 1905.25 1673.06 L 2010.68 1891.83 C 2021.73 1914.57 2033.59 1948.46 2048 1968.62 L 2048 1982.72 C 2041.15 1992.33 2039.26 1994.58 2029.39 2001 L 2013.33 2001 C 1994.15 1990.65 1989.66 1978.85 1980.16 1960.26 C 1952.39 1905.91 1928.2 1850.12 1900.44 1795.72 C 1883.65 1762.81 1869.04 1728.51 1849.31 1697.13 C 1837.02 1711.6 1823.02 1747.66 1814.65 1765.73 C 1800.54 1796.15 1783.35 1826.82 1769.4 1857.09 L 1737.16 1927.97 C 1728.35 1947.77 1718.77 1972.02 1706.6 1990.18 C 1703.45 1994.89 1695.52 1998.37 1690.27 2001 L 1679.12 2001 C 1667.97 1996.77 1662.75 1992.35 1655.13 1983.59 z" fill="url(#Gradient1)" transform="translate(0,0)"/>
<path d="M 1840.68 1872.33 C 1862.51 1868.71 1883.12 1883.51 1886.68 1905.35 C 1890.24 1927.19 1875.38 1947.76 1853.53 1951.25 C 1831.77 1954.73 1811.29 1939.95 1807.75 1918.2 C 1804.21 1896.44 1818.94 1875.93 1840.68 1872.33 z" fill="rgba(207, 120, 197, 1)" transform="translate(0,0)"/>
</g></svg></svg></svg>